if (_typeface_js && _typeface_js.loadFace) _typeface_js.loadFace({"glyphs":{"S":{"x_min":50,"x_max":720.625,"ha":772,"o":"m 455 359 q 345 359 380 359 q 278 359 309 359 q 237 357 266 359 q 195 355 209 355 q 129 427 157 355 q 102 568 102 500 q 110 611 102 600 q 149 685 133 656 q 172 717 165 714 q 326 801 263 768 q 436 853 389 835 q 564 871 484 871 q 669 858 627 871 q 718 815 710 846 q 698 729 726 786 q 650 673 669 673 q 620 702 634 673 q 590 732 605 731 q 449 745 514 745 q 348 734 387 745 q 285 700 308 724 q 252 674 262 682 q 235 635 235 659 q 237 611 235 628 q 256 513 247 561 q 329 451 275 451 q 426 454 389 451 q 480 467 464 457 q 570 495 526 495 q 637 465 612 495 q 663 384 663 435 q 639 241 663 316 q 549 86 609 144 q 500 54 541 79 q 458 21 479 41 q 444 19 455 19 q 420 9 434 19 q 353 -16 395 -6 q 261 -26 310 -26 q 144 -7 195 -26 q 118 7 134 -3 q 97 22 103 19 q 71 26 92 26 q 50 37 50 26 l 50 131 l 78 173 l 97 173 q 131 204 106 173 q 146 207 141 216 q 184 143 172 161 q 237 108 206 110 q 258 110 247 108 q 275 112 269 113 q 324 90 281 110 q 378 75 357 75 q 410 86 398 75 l 429 108 q 445 118 434 112 q 467 133 457 124 q 485 179 477 142 q 494 257 494 216 q 485 331 494 303 q 455 359 476 359 "},"/":{"x_min":34.46875,"x_max":502.859375,"ha":530,"o":"m 456 864 q 433 820 438 858 q 428 781 428 783 q 350 565 396 687 q 293 413 295 422 q 248 300 274 352 q 197 195 223 248 l 88 -112 l 34 -147 q 42 -102 39 -119 q 69 -24 53 -54 q 83 -5 73 -16 q 94 12 93 5 l 122 105 l 201 316 q 249 426 216 337 q 310 599 276 502 q 374 771 351 717 q 387 791 380 781 q 400 855 387 823 q 425 913 423 907 l 459 1024 l 502 999 q 486 917 501 996 q 456 864 478 871 "},"K":{"x_min":46.046875,"x_max":786.734375,"ha":819,"o":"m 781 788 q 564 610 760 724 q 415 515 446 541 q 384 462 384 488 q 407 423 384 440 q 576 235 510 301 q 683 169 642 169 q 726 178 698 169 q 752 188 734 181 l 784 159 q 784 156 784 157 q 747 99 751 110 q 741 69 744 88 q 733 41 738 50 q 710 27 728 32 q 687 12 692 21 q 683 -4 683 3 q 680 -32 683 -28 q 661 -35 669 -35 q 568 2 616 -35 q 476 127 513 46 q 374 270 454 174 q 281 362 293 366 q 256 305 256 351 q 258 260 256 291 q 261 214 261 230 q 256 175 261 191 q 238 156 242 164 q 231 132 231 148 q 234 108 231 124 q 238 85 238 92 q 233 66 238 77 q 208 13 220 30 q 164 -14 189 -14 q 140 -7 152 -14 q 121 -8 134 -3 q 101 -13 108 -13 q 63 -8 77 -13 q 46 12 48 -4 q 78 49 44 25 q 96 60 84 53 q 91 96 91 80 q 92 121 91 112 q 106 143 95 130 q 118 166 117 156 q 120 184 120 171 q 117 220 120 195 q 114 246 114 245 q 121 284 114 266 q 151 369 136 326 q 174 533 174 452 q 174 577 174 553 q 168 624 174 601 q 171 637 167 631 q 184 659 184 655 q 142 696 186 682 q 96 717 97 709 q 112 752 93 737 q 149 781 130 767 q 196 832 181 815 q 277 888 246 888 q 312 872 295 888 q 336 845 329 857 q 343 822 343 833 q 334 796 343 815 q 325 768 325 777 q 318 685 325 737 q 311 605 311 634 q 313 576 311 586 q 322 568 313 568 q 437 645 344 568 q 610 791 523 717 q 755 870 714 870 q 784 849 777 870 q 784 829 789 835 q 775 820 779 824 q 784 800 779 810 q 781 788 784 799 "},"7":{"x_min":45,"x_max":528.25,"ha":575,"o":"m 484 718 q 359 367 409 595 q 320 91 320 188 q 321 73 320 76 q 288 26 326 54 q 228 2 249 -1 q 190 -7 207 6 q 160 -19 173 -20 q 129 -7 135 -16 q 127 8 127 -1 q 186 230 127 56 q 299 534 229 353 q 365 701 332 617 q 368 709 368 706 q 369 716 369 713 q 364 725 369 722 q 347 728 360 728 q 313 723 330 728 q 271 713 295 719 q 224 704 247 708 q 163 701 200 701 q 107 701 125 701 q 66 718 88 701 q 45 751 45 736 q 56 768 45 761 q 68 783 68 775 q 57 804 62 793 q 68 849 53 824 q 107 875 84 875 q 133 852 128 875 q 148 830 139 829 q 222 836 170 836 q 284 836 275 836 l 378 836 q 411 836 400 836 q 441 836 426 836 q 455 840 451 840 q 521 849 506 848 q 528 842 524 845 q 513 811 513 829 q 516 783 516 793 q 512 768 516 780 q 499 741 508 755 q 484 718 489 726 "},"d":{"x_min":52,"x_max":494,"ha":510,"o":"m 494 458 q 464 269 494 347 q 400 186 434 191 q 360 111 397 159 q 227 -6 317 54 q 186 -18 210 -18 q 157 -13 173 -18 q 133 -6 142 -9 q 67 63 87 11 q 52 166 52 102 q 121 397 52 295 q 302 576 211 485 q 253 648 318 601 q 93 759 173 703 q 101 774 91 767 q 117 799 116 785 q 119 835 119 813 q 137 844 126 844 q 177 840 156 840 q 201 846 188 840 q 233 862 215 853 q 240 852 240 862 q 259 806 240 823 q 297 774 278 790 q 382 720 298 773 q 494 458 494 651 m 381 374 q 380 409 380 387 q 377 460 380 445 q 356 492 374 474 q 228 398 330 519 q 173 276 173 331 q 176 238 173 265 q 190 186 179 212 q 237 137 207 149 q 318 194 261 127 q 382 348 382 269 q 381 374 382 366 "},",":{"x_min":32.875,"x_max":236.203125,"ha":265,"o":"m 115 139 q 178 178 132 178 q 234 141 216 178 q 174 -22 247 114 q 120 -124 126 -110 q 89 -139 114 -139 q 69 -136 83 -139 q 40 -131 51 -136 q 34 -117 29 -127 q 57 -74 34 -116 q 89 -5 80 -33 q 103 72 97 22 q 115 139 108 122 "},"Y":{"x_min":47.984375,"x_max":875.703125,"ha":911,"o":"m 601 730 q 559 737 575 737 q 540 731 548 737 q 523 732 534 727 q 499 746 504 741 q 478 778 492 753 q 472 807 472 792 q 482 840 472 825 q 511 855 492 855 q 529 852 522 855 q 609 829 575 837 q 661 822 643 822 q 710 848 685 822 q 748 862 722 862 q 778 862 770 862 q 814 850 797 862 q 852 809 831 839 q 875 749 879 770 q 773 410 854 625 q 563 -15 675 153 q 300 -225 424 -225 q 231 -220 236 -225 q 234 -208 232 -213 q 196 -210 211 -208 q 166 -215 182 -212 q 137 -205 155 -215 q 99 -159 112 -189 q 87 -105 87 -128 q 97 -48 87 -73 q 125 -16 107 -23 q 183 -59 162 -45 q 302 -104 254 -104 q 366 -70 343 -104 q 396 12 396 -26 q 380 76 396 43 q 329 188 332 174 q 304 280 318 237 q 243 479 263 403 q 190 635 216 585 q 169 668 182 652 q 162 686 169 681 q 122 695 151 695 q 98 695 110 695 q 74 695 87 695 q 53 708 63 695 q 51 727 43 721 q 89 760 81 752 q 115 798 104 777 q 158 851 136 835 q 205 868 180 868 q 259 849 232 868 q 291 820 278 837 q 320 781 315 785 q 329 769 326 776 q 331 755 331 763 q 329 732 329 739 q 332 718 329 728 q 344 699 335 707 q 373 668 370 676 q 369 640 378 656 q 361 614 361 624 q 377 575 361 599 q 396 543 393 550 q 397 521 397 539 l 395 499 q 417 448 395 475 q 441 409 439 421 q 444 385 444 396 q 441 355 444 374 q 438 323 438 335 q 462 190 438 260 q 510 92 482 131 q 545 137 527 115 q 617 374 565 191 q 648 491 640 457 q 668 604 662 547 q 669 626 668 614 q 671 645 671 638 q 658 695 671 677 q 601 730 642 718 "},"E":{"x_min":48,"x_max":633.71875,"ha":673,"o":"m 454 492 q 460 465 454 485 q 462 455 460 462 q 305 383 377 442 q 221 224 221 313 q 263 115 221 152 q 358 83 300 83 q 432 94 397 83 q 512 132 467 106 q 554 157 527 140 q 574 160 568 160 q 583 147 583 160 q 569 92 583 133 q 555 84 568 87 q 537 76 543 81 q 539 46 532 69 q 537 22 547 23 q 483 -8 517 19 q 432 -24 455 -30 q 410 -11 422 -23 q 388 0 398 0 q 362 -12 376 0 q 338 -24 349 -24 q 297 -6 326 -26 q 271 0 282 2 q 253 -13 262 -2 q 240 -24 245 -23 q 206 -33 221 -33 q 154 -15 181 -33 q 102 24 140 -6 q 75 83 83 63 q 48 163 48 145 q 68 240 48 191 q 117 336 88 290 q 197 412 140 372 q 297 496 298 484 q 262 539 294 512 q 240 572 242 555 q 237 598 237 589 q 249 649 237 621 q 266 670 252 655 q 275 685 272 678 q 277 700 277 691 q 277 713 277 709 q 280 735 277 722 q 304 763 283 747 q 328 781 316 771 q 431 852 383 828 q 537 876 479 876 q 633 857 576 876 q 631 848 631 852 q 624 807 624 821 q 631 778 624 799 q 633 768 631 775 q 607 759 624 759 q 585 765 596 759 q 544 788 565 781 q 504 795 523 795 q 417 750 452 795 q 382 650 382 706 q 403 576 382 609 q 469 531 425 544 q 469 523 473 530 q 454 492 454 499 "},"y":{"x_min":42,"x_max":543.296875,"ha":582,"o":"m 56 -157 q 171 -144 158 -147 q 272 -83 237 -129 q 308 -11 291 -56 q 326 56 326 33 q 324 65 326 63 q 316 66 321 69 q 275 52 296 59 q 150 -25 157 -25 q 127 15 134 0 q 103 93 103 63 q 99 118 99 105 q 104 153 99 127 q 110 188 110 179 q 84 410 110 286 q 56 519 75 452 q 90 545 78 537 q 160 572 130 572 q 172 570 168 572 q 218 555 209 560 q 237 519 241 541 q 232 505 236 510 q 223 492 223 494 q 216 458 216 472 q 220 430 216 444 q 228 404 224 416 q 221 389 228 397 q 216 377 214 381 q 232 367 224 372 q 221 337 234 360 q 210 298 207 313 q 223 186 216 241 q 251 112 232 127 q 328 186 289 148 q 386 413 386 291 q 376 450 386 429 q 367 487 366 472 q 403 517 370 505 q 441 566 436 530 q 496 537 469 551 q 542 474 549 491 q 466 201 501 380 q 400 -41 432 22 q 390 -54 399 -47 q 380 -66 381 -61 q 378 -87 377 -75 q 380 -102 380 -100 q 326 -170 375 -133 q 263 -205 283 -200 q 249 -216 256 -205 q 241 -229 242 -228 q 189 -264 222 -249 q 119 -293 156 -278 q 71 -256 101 -304 q 42 -176 42 -208 q 56 -157 42 -157 "},"\"":{"x_min":36.5,"x_max":403,"ha":447,"o":"m 242 543 q 254 615 248 588 q 300 745 272 694 q 332 771 314 771 q 344 769 340 769 l 359 762 q 392 761 375 761 q 403 729 403 752 q 382 674 403 694 q 354 634 367 659 q 329 586 341 609 q 318 557 321 565 q 299 533 311 538 q 269 529 287 529 q 238 533 243 529 q 242 543 239 537 m 191 758 q 204 738 204 752 q 199 713 204 726 q 182 681 194 701 q 142 619 146 627 q 127 577 131 590 q 103 543 119 555 q 89 539 99 539 q 67 537 80 539 q 40 520 55 536 q 36 524 37 522 q 44 566 43 555 q 53 592 46 576 q 61 611 61 608 q 78 690 69 650 q 101 745 89 717 q 142 772 116 772 q 191 758 163 772 "},"g":{"x_min":50,"x_max":509,"ha":539,"o":"m 509 560 q 509 538 509 557 q 509 399 509 518 q 504 221 509 258 q 476 133 487 197 q 442 -24 457 21 q 394 -112 413 -76 q 311 -236 345 -204 q 165 -285 258 -285 q 92 -251 123 -285 q 61 -176 61 -218 q 65 -150 61 -162 l 67 -142 q 84 -146 76 -143 q 130 -199 117 -200 q 218 -178 176 -199 q 288 -132 240 -167 q 323 -51 310 -114 q 337 65 337 11 q 337 89 337 75 q 331 102 337 103 q 244 38 284 65 q 146 -13 165 -18 q 92 7 110 -2 q 57 52 65 23 q 50 114 50 81 q 84 270 50 188 q 128 345 113 339 q 139 344 132 348 q 143 345 140 344 q 218 471 143 405 q 376 570 280 525 q 382 581 382 574 q 372 607 382 583 q 370 640 363 631 q 382 649 377 649 q 406 633 392 649 q 454 585 448 588 l 509 560 m 309 457 q 209 282 244 382 q 181 138 181 202 q 190 102 181 103 q 296 165 221 95 q 366 239 320 189 q 369 238 367 238 q 376 335 376 243 q 368 459 376 424 q 347 494 360 494 q 327 481 337 494 q 309 457 318 469 "},"e":{"x_min":41.5,"x_max":452,"ha":496,"o":"m 335 118 q 340 89 340 102 q 299 24 340 46 q 242 3 251 5 q 236 -5 240 3 q 220 -12 232 -12 q 177 -16 197 -12 q 142 -18 157 -21 q 65 54 97 -9 q 44 136 32 117 q 53 242 53 193 q 70 325 53 292 q 116 397 80 350 q 177 484 160 454 q 196 496 179 491 q 216 504 213 501 q 299 548 250 530 q 388 566 348 566 q 437 547 423 566 q 447 528 445 535 q 452 504 452 516 q 446 484 452 495 q 439 463 441 473 q 435 436 438 454 q 438 421 435 432 q 445 411 439 416 q 452 400 452 404 q 446 390 452 394 q 437 382 437 383 q 386 323 420 350 q 329 285 364 304 q 308 285 318 285 q 274 267 296 272 q 231 263 253 263 q 197 258 200 263 l 183 229 l 177 218 q 175 202 175 207 q 177 188 175 195 q 181 174 177 185 q 186 167 182 172 q 189 164 188 165 q 188 145 188 152 q 197 105 188 114 q 242 87 215 87 q 316 111 270 87 q 335 118 326 114 m 325 469 q 300 479 314 479 q 266 465 283 479 q 247 444 258 458 q 206 365 220 400 q 201 327 192 331 q 221 324 205 325 q 239 323 236 323 q 287 344 265 323 q 329 386 308 365 q 343 423 343 397 q 325 469 343 452 "},"J":{"x_min":61,"x_max":604,"ha":656,"o":"m 597 877 q 604 858 604 876 q 549 623 604 819 q 504 454 515 502 q 473 268 493 407 q 409 61 446 80 q 391 59 404 56 q 371 61 379 62 q 344 28 356 56 q 315 0 331 0 q 309 -11 309 0 q 310 -30 310 -23 q 306 -41 310 -37 q 248 -94 277 -67 q 176 -126 209 -126 q 145 -117 161 -126 q 133 -109 138 -114 q 114 -92 118 -94 l 95 -85 q 72 -65 84 -78 q 61 -40 61 -51 q 70 -29 61 -30 q 257 111 188 8 q 341 322 309 187 q 387 532 364 426 q 414 647 406 607 q 422 705 422 687 q 416 723 422 719 q 414 749 411 727 q 394 771 417 771 q 346 771 370 771 q 306 774 330 774 q 279 774 291 774 q 259 774 268 774 q 215 796 218 774 q 212 821 212 818 q 221 844 212 837 q 240 859 231 851 q 266 868 248 868 q 315 854 276 868 q 352 846 338 846 q 382 848 366 846 q 400 850 398 850 q 423 836 408 848 q 446 830 438 825 q 508 865 477 848 q 565 882 540 882 q 597 877 580 882 "},"^":{"x_min":93,"x_max":594,"ha":687,"o":"m 343 1299 l 289 1199 l 300 1176 l 300 1154 l 289 1132 l 267 1110 l 212 1099 l 136 954 l 93 888 l 93 866 l 114 855 l 125 844 l 136 844 l 158 844 l 169 866 l 201 866 l 212 899 l 223 943 l 245 965 l 354 1165 l 386 1121 l 419 1110 l 441 1077 l 441 1054 l 462 1021 l 473 988 l 495 943 l 528 844 l 550 844 l 572 855 l 594 877 l 594 910 l 561 1043 l 550 1054 l 550 1065 l 506 1099 l 517 1121 l 484 1165 l 441 1221 l 386 1310 l 343 1299 "},"q":{"x_min":48,"x_max":562.96875,"ha":597,"o":"m 562 602 q 530 492 561 602 q 467 260 489 352 q 433 59 433 117 q 426 -9 433 16 q 410 -83 413 -57 q 407 -117 407 -110 q 407 -128 407 -125 q 412 -156 407 -147 q 427 -163 417 -163 q 450 -156 430 -163 q 450 -160 450 -157 q 393 -226 417 -205 q 311 -261 354 -261 q 298 -260 302 -260 q 268 -245 277 -260 q 260 -206 260 -231 q 309 -25 260 -160 q 320 25 314 0 q 236 15 290 25 q 113 -7 117 -7 q 58 45 75 -7 q 48 141 48 81 q 137 339 48 236 q 245 447 156 361 q 361 529 264 465 q 417 579 399 554 q 422 595 422 586 q 413 628 422 610 q 408 636 412 631 q 426 638 412 645 q 449 631 441 631 q 468 637 458 631 q 484 644 478 644 q 527 632 508 644 q 562 602 539 625 m 381 280 q 403 400 403 335 q 389 450 403 446 q 261 350 348 461 q 182 174 174 238 q 202 103 188 131 q 248 76 216 76 q 339 134 299 76 q 349 168 346 145 q 362 217 353 192 q 379 268 379 257 q 381 280 379 273 "},"b":{"x_min":44,"x_max":549,"ha":565,"o":"m 238 483 q 327 508 279 483 q 450 567 437 567 q 473 561 462 567 q 531 503 514 543 q 549 409 549 463 q 543 363 549 387 q 533 323 538 338 l 524 298 q 507 247 516 272 q 476 208 498 223 q 454 195 465 201 q 335 77 400 127 q 200 13 259 18 q 184 -4 192 13 q 166 -22 176 -22 q 79 14 109 -22 q 44 147 44 55 q 57 244 44 187 q 116 515 106 449 q 141 637 125 580 q 172 747 156 694 q 175 761 173 754 q 175 772 175 769 q 172 802 175 782 q 169 836 169 823 q 154 941 163 890 q 147 955 149 948 q 172 973 162 968 q 222 993 202 993 q 279 998 251 995 q 319 985 305 998 q 329 941 332 973 q 255 597 325 906 q 238 483 247 540 m 156 201 q 220 118 163 118 q 366 220 284 118 q 383 273 380 237 q 387 330 387 309 q 389 359 387 342 q 392 377 392 376 q 380 420 388 405 q 352 446 367 441 q 332 451 336 451 q 212 331 279 451 q 156 201 154 226 "},"D":{"x_min":61,"x_max":1299.421875,"ha":1357,"o":"m 201 54 q 184 41 190 45 q 156 29 165 29 q 151 44 147 29 q 154 63 154 58 q 126 118 154 90 q 74 173 99 145 q 61 216 61 193 q 63 241 61 229 q 78 288 65 245 q 99 333 89 311 q 99 374 99 354 q 115 397 102 385 q 131 419 129 409 l 134 448 q 160 502 140 474 q 175 521 167 512 l 179 541 q 199 563 180 549 q 212 580 209 570 q 216 599 216 591 q 216 641 216 620 q 271 689 221 660 q 316 720 304 707 q 558 885 431 830 q 876 948 703 948 q 1194 852 1084 948 q 1298 624 1311 749 q 1298 543 1298 578 q 1298 483 1298 508 q 1298 474 1298 478 q 1289 448 1292 458 q 1241 413 1255 424 q 1222 386 1227 401 q 1217 354 1217 372 q 1219 327 1217 338 q 1221 316 1219 323 q 1135 164 1178 240 q 991 45 1077 94 q 840 -3 904 -3 q 797 6 819 -3 q 783 -6 790 9 q 768 -24 775 -22 q 755 -29 760 -29 q 732 -25 746 -29 q 710 -22 718 -20 q 699 -27 708 -22 q 687 -32 694 -30 q 662 -31 678 -34 q 640 -29 646 -29 q 621 -29 628 -29 q 602 -22 606 -29 q 601 -12 601 -15 q 595 -3 598 -7 q 573 -14 586 -14 q 549 -5 564 -14 q 520 9 524 8 q 479 47 493 20 q 414 144 443 122 q 415 160 406 151 q 448 186 424 169 q 485 154 471 164 q 556 121 528 121 q 575 126 565 121 q 617 273 586 132 q 672 545 632 340 q 712 732 700 695 q 718 757 716 745 q 721 771 721 769 q 711 797 721 791 q 684 804 701 804 q 484 742 576 804 q 347 589 392 681 q 328 576 337 581 q 226 419 270 534 q 183 186 183 305 q 201 54 183 112 m 1118 529 q 1073 701 1118 609 q 976 804 1028 794 q 937 821 967 805 q 914 830 920 830 q 897 817 903 830 q 891 774 891 805 q 876 738 891 738 q 867 732 867 738 q 774 377 867 573 q 684 164 708 240 q 678 132 678 143 q 701 102 678 109 q 759 96 724 96 q 1008 225 898 96 q 1118 529 1118 354 "},"z":{"x_min":50,"x_max":471,"ha":510,"o":"m 56 99 q 154 192 84 106 q 269 352 224 277 q 302 441 285 397 q 285 443 291 443 q 262 441 272 443 q 242 436 253 439 l 228 433 q 187 428 198 428 q 144 434 168 428 q 97 448 119 441 q 81 471 76 455 l 88 480 q 94 512 94 491 q 94 526 94 519 q 92 532 94 527 l 132 582 q 149 552 137 558 q 179 546 160 546 q 216 546 204 546 q 345 546 293 546 q 451 546 397 546 q 453 532 453 536 q 451 505 453 522 q 449 483 449 487 q 393 395 431 447 q 338 311 355 343 q 332 291 336 302 q 319 269 327 280 q 306 261 317 266 q 287 238 295 257 q 236 173 257 202 q 206 112 216 144 q 231 101 221 104 q 283 93 261 93 l 471 93 q 460 52 471 54 q 446 44 449 49 q 438 20 442 31 q 423 2 434 9 q 413 -2 419 0 q 401 -7 405 -5 q 345 -31 372 -19 q 310 -40 330 -37 q 270 -43 289 -43 q 183 -30 232 -43 q 120 -12 134 -17 q 102 -8 106 -8 q 89 -7 96 -7 q 69 -13 83 -7 q 59 22 62 9 q 50 81 50 62 q 56 99 50 97 "},"w":{"x_min":48,"x_max":764,"ha":806,"o":"m 51 460 q 72 472 55 472 q 94 480 90 472 q 153 550 118 521 q 206 572 187 579 q 227 563 221 567 q 242 543 236 556 q 235 496 247 532 q 204 371 204 400 q 200 324 204 354 q 191 242 191 253 q 201 219 191 219 q 213 224 206 219 q 237 259 227 234 q 251 291 247 285 q 270 313 257 299 q 293 348 283 328 q 357 472 304 367 q 406 557 397 549 q 439 566 415 566 q 476 557 457 566 q 487 538 495 548 q 447 433 461 504 q 433 280 433 361 q 430 227 433 256 q 423 135 423 153 q 433 75 423 96 q 473 54 444 54 q 584 160 529 54 q 635 349 635 260 q 622 406 635 386 q 585 423 609 426 q 559 434 562 420 q 554 450 555 449 q 544 445 549 445 q 532 452 540 445 q 506 470 518 463 q 510 477 508 473 q 553 496 549 487 q 581 546 568 530 q 632 570 602 570 q 689 543 649 570 q 725 516 701 535 q 751 446 739 480 q 764 374 764 412 q 712 159 764 179 q 670 143 690 150 q 648 109 660 134 q 622 71 636 84 q 592 47 609 59 q 549 5 580 27 q 473 -24 508 -24 q 456 -22 461 -24 q 430 -12 442 -17 l 414 -17 q 313 55 342 -23 q 294 177 294 104 q 294 195 294 185 q 295 200 294 197 q 289 213 292 213 q 224 105 279 213 q 141 -25 166 -10 q 122 -31 131 -31 q 83 -17 103 -31 q 53 16 62 -3 q 63 121 48 27 q 101 377 101 361 q 99 399 101 392 q 69 417 91 421 q 48 445 48 414 q 48 453 48 449 q 51 460 51 459 "},"$":{"x_min":38,"x_max":654.8125,"ha":693,"o":"m 438 858 l 443 893 l 452 896 q 452 930 452 919 q 460 942 452 942 q 480 936 468 942 q 491 930 484 935 q 491 889 491 905 q 489 858 491 873 q 503 854 496 859 q 518 841 510 847 l 527 843 l 530 850 l 552 850 l 559 840 q 579 843 572 843 q 591 840 583 843 q 629 814 610 830 q 648 789 648 797 l 648 709 l 654 705 l 652 687 l 628 684 q 565 719 609 706 q 488 733 521 733 q 464 727 465 733 q 453 701 457 710 q 434 645 441 670 q 423 599 427 620 q 416 545 419 579 l 407 468 q 434 468 419 468 q 466 468 449 468 q 504 465 500 468 l 523 442 l 538 449 q 573 438 550 454 q 606 404 595 422 q 620 369 617 386 q 623 311 623 353 q 486 81 623 182 q 296 -9 383 4 q 284 -3 290 -9 q 284 -28 284 -8 q 271 -112 284 -48 q 259 -132 270 -124 q 237 -140 248 -140 q 224 -127 224 -140 l 232 -71 q 240 -56 239 -66 q 242 -30 242 -46 q 242 -13 242 -21 q 240 -6 242 -10 q 224 -8 234 -8 q 124 21 182 -8 q 46 76 66 51 q 38 94 38 87 q 42 107 38 98 q 47 122 46 116 q 45 148 45 141 q 55 179 45 166 q 96 198 66 191 q 105 191 103 193 q 126 181 115 186 l 152 173 q 168 155 158 169 q 177 144 173 147 q 202 126 190 133 q 249 115 225 112 q 273 135 265 116 q 278 155 275 141 q 304 254 285 163 q 322 343 310 283 q 315 354 326 351 q 288 358 304 358 q 252 358 270 358 q 218 356 234 358 q 158 399 196 356 q 116 470 120 443 q 111 504 112 498 q 110 535 110 513 q 118 615 110 562 q 138 644 120 626 q 160 682 156 663 q 203 727 164 701 q 274 762 243 754 q 328 802 306 787 q 375 817 350 817 q 402 817 393 817 q 426 825 416 817 q 438 858 435 833 m 482 303 q 458 340 477 322 q 413 364 435 364 q 385 353 398 364 q 360 318 372 343 q 342 236 356 317 q 323 162 334 188 q 318 144 321 155 q 317 129 317 137 q 347 97 317 97 q 382 97 371 97 q 414 102 398 97 q 471 162 452 115 q 487 251 487 201 q 487 275 487 261 q 482 303 487 289 m 356 472 q 382 580 374 542 q 410 733 410 701 q 394 736 404 734 q 378 738 385 738 q 290 707 326 738 q 239 568 239 662 q 239 545 239 556 q 244 508 242 529 q 271 472 246 488 q 323 456 296 456 q 356 472 356 456 "},"™":{"x_min":134.1875,"x_max":965.640625,"ha":1034,"o":"m 396 1241 q 385 1244 393 1243 q 369 1246 376 1246 q 343 1238 356 1246 q 323 1213 331 1231 q 317 1204 321 1212 q 308 1191 312 1196 q 303 1184 304 1185 q 299 1171 299 1180 q 296 1156 299 1162 q 290 1143 293 1149 q 288 1131 288 1137 q 288 1123 288 1126 q 287 1116 288 1119 q 283 1106 287 1113 q 279 1092 279 1098 q 279 1084 279 1085 q 279 1073 279 1081 q 281 1048 279 1062 q 285 1029 284 1034 q 289 1019 286 1024 q 299 1007 299 1009 q 308 979 304 994 q 322 965 312 970 q 344 960 331 960 q 377 970 360 960 q 403 996 394 981 q 404 991 403 994 q 398 965 403 976 q 402 961 398 965 q 403 957 405 958 q 378 935 390 940 q 360 931 369 931 q 353 931 357 931 q 349 931 349 932 q 337 925 343 928 q 327 922 331 922 q 319 923 324 922 q 312 924 315 924 q 308 922 311 924 l 302 922 q 293 922 298 922 q 250 939 269 922 q 232 985 232 957 q 231 995 231 988 q 233 1013 231 1002 l 218 1019 q 216 1031 216 1019 q 226 1105 216 1064 q 261 1180 238 1158 q 287 1224 274 1201 q 296 1230 289 1225 q 305 1241 304 1234 q 302 1251 308 1248 q 286 1255 296 1255 q 274 1254 279 1255 q 266 1254 269 1254 q 262 1249 266 1254 q 259 1248 261 1248 q 253 1250 256 1248 q 248 1251 249 1252 q 206 1220 229 1246 q 171 1156 178 1191 q 167 1127 167 1142 q 167 1101 167 1115 q 167 1087 167 1088 q 178 1071 167 1084 q 179 1064 182 1067 q 174 1062 178 1062 q 168 1062 171 1062 q 164 1064 167 1062 l 148 1084 q 148 1099 148 1091 q 140 1108 148 1104 q 134 1116 133 1113 q 152 1192 141 1159 q 178 1237 163 1225 q 181 1241 181 1238 q 175 1250 178 1246 q 173 1259 173 1255 q 175 1267 173 1262 q 191 1277 177 1272 q 207 1286 203 1281 q 229 1304 228 1302 q 256 1308 241 1308 q 279 1304 267 1308 q 319 1287 307 1287 q 330 1286 324 1287 q 343 1286 336 1286 q 351 1286 346 1286 q 362 1288 357 1287 q 394 1304 378 1296 q 400 1304 397 1304 q 407 1300 403 1304 q 415 1296 411 1296 q 422 1295 416 1294 q 428 1297 428 1297 q 435 1293 433 1297 q 438 1285 438 1291 q 438 1273 438 1280 q 442 1260 439 1266 q 433 1242 442 1248 q 415 1237 425 1237 q 396 1241 405 1237 m 661 999 q 680 1079 670 1021 q 691 1166 691 1137 q 686 1183 691 1183 q 621 1131 666 1187 q 553 994 574 1070 q 550 981 552 988 q 527 968 545 968 q 503 981 511 968 q 503 991 503 983 q 507 1025 503 1005 q 520 1059 511 1045 q 521 1066 521 1062 q 519 1077 521 1070 q 520 1088 518 1084 q 523 1101 520 1093 q 528 1109 526 1104 q 530 1126 530 1115 q 530 1152 530 1138 q 529 1199 530 1173 q 526 1221 529 1207 q 511 1216 521 1227 q 495 1199 495 1201 l 495 1237 q 512 1263 495 1241 q 529 1316 529 1284 q 536 1319 529 1319 q 571 1306 552 1319 q 596 1272 596 1291 q 589 1189 596 1227 q 575 1134 582 1163 q 576 1133 575 1134 q 582 1134 578 1131 q 621 1178 587 1135 q 687 1260 670 1241 q 744 1316 726 1308 q 757 1319 750 1319 q 767 1313 763 1319 q 775 1306 771 1308 q 771 1293 771 1304 q 770 1282 771 1287 q 766 1269 769 1277 q 763 1255 763 1260 q 768 1237 763 1249 q 771 1225 771 1228 q 755 1199 759 1209 q 739 1142 739 1167 q 744 1113 739 1126 q 791 1159 767 1137 q 879 1260 861 1241 q 952 1318 931 1318 q 956 1318 956 1318 q 965 1299 965 1315 q 952 1246 965 1276 q 935 1217 940 1216 q 929 1216 930 1219 q 929 1213 929 1216 q 930 1189 929 1202 q 928 1180 929 1184 q 923 1173 928 1178 q 914 1165 921 1169 q 908 1158 908 1162 q 911 1151 908 1155 q 914 1147 914 1148 q 910 1132 915 1141 q 906 1119 906 1123 q 909 1108 906 1115 q 912 1097 912 1101 q 910 1093 912 1093 q 899 1091 900 1093 q 893 1064 893 1087 q 886 1006 886 1020 q 888 992 886 1001 q 910 976 891 983 q 930 968 929 970 q 916 946 932 957 q 888 935 900 935 q 883 939 883 935 l 862 928 q 831 944 842 933 q 818 977 818 957 q 818 985 818 981 q 820 995 818 987 q 845 1093 830 1037 q 856 1146 856 1133 q 849 1170 856 1162 q 815 1148 831 1158 q 755 1069 790 1119 q 695 974 721 1020 q 684 968 691 968 q 667 976 674 968 q 660 994 660 984 q 661 999 660 996 "},"\\":{"x_min":34.46875,"x_max":502.859375,"ha":530,"o":"m 456 12 q 433 56 438 19 q 428 95 428 94 q 350 312 396 190 q 293 463 295 455 q 248 576 274 524 q 197 681 223 628 l 88 989 l 34 1024 q 42 980 39 996 q 69 902 53 931 q 83 883 73 894 q 94 864 93 871 l 122 771 l 201 560 q 249 451 216 540 q 310 277 276 374 q 374 105 351 159 q 387 86 380 95 q 400 22 387 54 q 425 -36 423 -30 l 459 -147 l 502 -122 q 486 -40 501 -119 q 456 12 478 5 "},"~":{"x_min":13.609375,"x_max":476.390625,"ha":490,"o":"m 13 977 l 111 1051 l 148 1051 l 187 1016 l 236 1016 l 340 954 l 449 1027 l 476 993 l 449 954 l 362 888 l 166 977 l 19 916 l 13 977 "},"-":{"x_min":49,"x_max":455.75,"ha":483,"o":"m 349 429 l 455 460 l 419 423 l 419 375 q 389 334 419 348 q 330 315 374 327 q 272 311 315 311 q 221 311 229 311 q 153 311 179 311 q 119 317 126 311 q 70 328 92 317 q 49 362 49 339 q 54 384 49 373 q 80 406 70 399 q 138 429 111 429 q 265 429 231 429 q 349 429 300 429 "},"Q":{"x_min":56,"x_max":752,"ha":800,"o":"m 243 682 q 324 750 294 728 q 406 800 365 775 q 485 843 424 811 q 538 880 530 867 q 584 862 542 889 q 667 813 651 821 q 690 798 684 805 q 701 783 696 790 q 729 712 723 757 q 736 655 734 668 q 752 465 752 553 q 732 308 752 372 q 670 227 713 244 q 650 197 653 221 q 644 166 647 173 q 609 130 637 150 q 580 88 580 109 q 588 57 580 77 q 672 -17 602 24 q 743 -73 743 -58 q 719 -96 743 -86 q 704 -87 708 -89 q 697 -96 700 -86 q 667 -148 690 -126 q 617 -171 644 -171 q 548 -108 572 -171 q 523 -83 537 -85 q 510 -76 510 -82 q 510 -43 510 -55 q 508 -17 510 -22 q 484 0 504 5 q 401 -21 444 -11 q 317 -31 358 -31 q 158 25 215 -31 q 85 262 85 98 q 83 303 85 287 q 76 320 82 320 q 64 308 74 320 q 60 308 61 308 q 56 333 56 332 q 60 349 56 340 q 117 493 60 376 q 243 682 184 629 m 503 173 q 544 234 515 175 q 591 349 573 293 q 598 397 595 361 q 615 464 602 433 q 612 493 619 474 q 606 521 606 512 q 612 541 607 529 q 615 560 616 553 q 611 572 614 568 q 596 592 603 582 q 597 623 594 603 q 601 649 601 643 q 566 732 595 690 q 515 774 537 774 q 305 594 396 774 q 227 300 227 439 q 255 161 227 236 q 353 62 293 62 q 421 92 386 62 q 427 98 424 93 q 428 100 427 99 q 407 106 417 105 q 386 131 386 112 q 390 149 386 138 q 377 164 392 156 q 356 178 362 171 l 425 220 q 440 203 435 209 q 503 173 478 166 "},"M":{"x_min":52,"x_max":1130,"ha":1184,"o":"m 431 64 q 477 269 453 122 q 501 490 501 415 q 491 534 501 533 q 343 401 443 543 q 183 51 230 243 q 179 20 181 35 q 127 -16 168 -16 q 71 20 90 -16 q 69 42 69 25 q 79 131 69 79 q 107 218 89 183 q 112 236 112 223 q 107 264 112 246 q 105 291 103 282 q 118 323 107 303 q 128 347 124 333 q 134 391 132 361 q 137 452 137 420 q 129 576 137 507 q 124 634 129 598 q 90 622 112 648 q 52 576 53 577 l 52 673 q 90 737 52 681 q 129 874 129 792 q 145 886 129 886 q 227 851 182 886 q 281 762 281 811 q 267 552 281 645 q 237 409 252 480 q 238 405 237 407 q 252 407 242 402 q 342 522 263 411 q 493 731 454 681 q 623 874 584 852 q 653 886 641 886 q 676 869 665 886 q 696 849 686 852 q 688 816 688 840 q 685 787 688 798 q 675 754 683 776 q 667 718 667 733 q 679 670 667 702 q 686 641 686 652 q 648 575 660 601 q 609 430 609 493 q 623 358 609 389 q 732 473 678 415 q 934 733 891 681 q 1102 879 1056 879 q 1113 877 1111 879 q 1130 831 1130 870 q 1103 696 1130 772 q 1064 623 1077 620 q 1050 622 1051 626 q 1050 612 1050 618 q 1050 551 1050 581 q 1045 527 1047 538 q 1034 507 1044 522 q 1015 489 1030 500 q 1001 468 1001 479 q 1007 454 1001 462 q 1015 439 1014 445 q 1008 405 1019 425 q 997 372 997 384 q 1003 343 997 361 q 1010 314 1010 325 q 1003 303 1010 303 q 980 301 981 303 q 965 233 965 289 q 952 82 952 118 q 957 46 952 68 q 1006 7 962 24 q 1051 -18 1050 -9 q 1019 -74 1055 -48 q 956 -101 983 -101 q 944 -92 944 -101 l 896 -117 q 823 -77 849 -105 q 794 7 794 -43 q 794 29 794 18 q 799 54 794 33 q 856 304 821 162 q 881 440 881 404 q 864 502 881 479 q 787 443 825 472 q 651 244 730 371 q 510 0 573 118 q 486 -16 501 -16 q 447 5 465 -16 q 429 50 429 26 q 431 64 429 56 "},"C":{"x_min":56,"x_max":701.21875,"ha":755,"o":"m 412 73 q 441 68 424 68 q 520 94 476 68 q 607 159 563 126 q 608 155 607 156 q 592 118 592 127 q 598 104 592 112 q 605 90 605 95 q 599 53 607 66 q 570 36 592 40 q 541 28 549 33 q 517 11 532 24 q 491 -3 503 -1 q 462 3 482 -4 q 434 6 443 12 q 322 -17 388 -17 q 186 13 245 -17 q 101 112 118 48 q 104 148 99 126 q 110 173 110 170 q 104 191 110 184 q 81 202 99 198 q 60 219 64 206 q 56 261 56 231 q 107 466 56 351 q 266 691 165 597 q 286 702 274 699 q 302 708 298 705 q 312 717 308 710 q 324 737 317 727 q 374 766 348 751 q 475 844 419 817 q 582 872 532 872 q 598 864 587 872 q 613 855 608 856 q 623 854 619 854 q 628 854 627 854 q 650 855 642 855 q 664 851 653 855 q 687 828 676 848 q 700 788 698 808 q 682 761 703 773 q 638 737 661 749 q 628 735 635 730 q 602 759 615 746 q 565 765 584 765 q 528 759 545 765 q 511 748 522 758 q 491 737 499 738 q 474 738 486 735 q 456 740 462 741 q 335 635 405 733 q 258 497 275 552 q 257 481 257 491 q 262 442 262 455 q 255 419 262 430 q 247 412 250 413 q 241 404 241 408 q 241 360 241 388 q 241 320 241 333 q 241 295 241 309 q 246 259 241 281 q 287 163 258 206 q 347 95 312 126 q 361 95 351 92 q 374 95 370 97 q 395 85 382 94 q 412 73 407 76 "},"[":{"x_min":38,"x_max":343.109375,"ha":425,"o":"m 38 1299 l 38 11 l 332 11 l 332 133 l 158 133 l 158 1188 l 343 1188 l 343 1299 l 38 1299 "},"L":{"x_min":50,"x_max":794.25,"ha":847,"o":"m 651 734 q 602 744 627 744 q 547 728 571 744 q 499 682 523 713 q 482 656 489 671 q 469 627 470 630 q 425 563 447 595 q 360 385 406 499 q 280 159 280 185 q 289 147 280 147 q 375 155 348 155 q 446 155 402 155 q 563 155 478 155 q 693 155 647 155 q 773 110 742 155 q 794 67 783 96 q 756 46 768 58 q 737 26 745 35 q 721 34 735 26 q 724 19 724 26 q 713 -25 724 -1 q 706 -36 711 -29 q 673 -29 689 -32 q 595 23 634 -3 q 444 33 527 33 q 280 23 356 33 q 173 3 203 14 q 67 -21 96 -21 q 50 -11 50 -21 q 82 38 50 1 q 113 85 115 76 q 115 106 115 99 q 124 117 116 119 q 212 237 165 108 q 250 367 227 278 q 246 390 247 375 q 245 411 245 405 q 246 441 245 424 q 251 478 247 457 q 337 710 273 586 q 425 829 401 834 q 443 822 433 825 q 459 825 452 818 q 495 854 477 846 q 531 861 514 861 q 561 858 540 861 q 591 857 583 854 q 632 874 616 869 q 662 879 649 879 q 694 872 672 879 q 728 865 715 865 l 728 836 l 730 838 q 762 820 744 832 q 758 791 767 804 q 733 734 734 749 q 715 705 733 705 q 693 711 707 705 q 651 734 672 723 "},"σ":{"x_min":37.890625,"x_max":343,"ha":436,"o":"m 343 11 l 343 1299 l 48 1299 l 48 1177 l 223 1177 l 223 122 l 37 122 l 37 11 l 343 11 "},"!":{"x_min":49,"x_max":252,"ha":285,"o":"m 51 -4 q 49 41 49 1 q 49 74 49 61 q 50 99 49 87 q 70 112 54 106 q 103 118 85 118 q 144 110 125 118 q 170 87 163 102 q 170 62 174 77 q 167 52 170 59 l 174 51 q 174 32 175 44 q 171 15 172 20 q 138 -1 150 4 q 78 -18 102 -18 q 51 -4 59 -18 m 249 845 q 252 827 252 842 q 236 655 252 778 q 207 435 220 531 q 203 385 203 406 q 211 330 203 356 q 229 274 219 304 q 216 261 229 267 q 183 237 186 245 q 149 174 176 201 q 127 173 134 159 q 104 176 115 174 q 82 186 93 177 q 64 204 70 194 q 51 249 58 215 q 57 277 50 261 q 64 316 64 294 q 62 341 64 331 l 159 817 q 178 829 160 824 q 203 839 196 834 q 220 864 216 857 q 230 867 226 871 l 249 845 "}," ":{"x_min":0,"x_max":0,"ha":408},"X":{"x_min":50.921875,"x_max":679,"ha":727,"o":"m 655 832 l 679 813 l 679 756 q 653 715 673 746 q 642 673 638 691 q 551 547 580 590 q 451 397 457 415 q 500 283 447 383 q 627 61 563 172 q 617 41 632 48 q 582 35 602 35 q 560 39 567 35 q 556 33 557 36 q 557 -3 560 1 l 488 -3 l 370 260 l 365 257 q 281 140 342 233 q 201 62 236 72 q 195 54 197 61 q 193 41 194 44 q 154 3 179 19 q 104 -12 130 -12 q 71 -1 84 -12 q 51 35 58 8 q 61 54 48 53 q 75 61 75 55 q 58 103 75 71 q 106 137 91 125 q 149 193 153 176 q 206 244 186 226 q 288 330 265 300 q 304 364 297 344 q 312 391 310 383 q 255 541 277 491 q 138 693 187 693 q 113 682 123 693 q 96 671 103 671 q 74 689 84 671 q 65 724 65 708 q 77 752 65 735 q 89 766 81 757 q 87 782 87 777 q 112 838 87 810 q 140 860 121 846 q 149 862 145 862 q 159 862 156 862 q 217 841 193 862 q 247 811 232 825 q 261 805 254 805 q 278 803 277 805 q 340 678 300 789 q 391 564 379 566 q 409 560 404 560 q 419 564 419 558 q 457 659 439 625 q 595 820 511 764 q 630 859 634 845 q 636 858 632 858 q 650 844 643 855 q 655 832 651 841 "},"P":{"x_min":60,"x_max":827,"ha":873,"o":"m 412 143 q 292 25 352 63 q 195 -6 241 -6 q 102 30 144 -6 q 70 66 89 41 q 65 152 70 96 q 60 232 60 207 q 65 283 60 257 q 90 338 70 309 q 123 394 116 375 q 200 564 168 521 q 416 761 238 613 q 546 833 467 804 q 693 863 625 863 q 783 842 747 863 q 822 788 818 822 q 827 717 827 753 q 827 660 827 686 q 827 611 827 634 q 803 450 827 524 q 719 339 780 377 q 697 342 705 344 q 680 327 688 341 q 666 310 673 313 q 635 303 645 307 q 594 274 614 288 q 539 306 576 270 q 515 320 522 323 q 495 308 504 314 q 484 291 487 302 q 446 182 469 217 q 412 143 420 154 m 555 371 q 654 472 610 421 q 712 570 698 523 q 721 636 721 597 q 721 705 721 676 q 721 724 721 719 q 721 731 721 726 q 675 731 697 731 q 635 731 654 731 q 584 724 602 731 q 530 699 548 711 q 513 677 513 687 q 536 651 513 667 q 560 631 560 636 q 546 599 549 610 q 553 535 542 579 q 555 509 558 514 q 549 484 551 498 q 542 455 546 470 q 526 425 538 439 q 514 396 514 412 q 515 384 514 388 q 535 351 522 351 q 555 371 549 351 m 371 191 q 405 416 377 235 q 424 581 424 541 q 422 611 424 599 q 409 617 420 622 q 243 481 332 586 q 113 227 135 355 q 106 211 109 216 q 100 195 100 202 q 106 175 100 186 q 158 130 124 145 q 234 116 192 116 q 326 136 286 116 q 371 191 367 157 "},"%":{"x_min":45,"x_max":881,"ha":927,"o":"m 466 113 q 460 141 463 127 q 462 187 462 153 q 462 249 462 220 q 567 451 462 330 q 753 572 673 572 q 785 565 772 572 q 816 542 798 558 q 865 502 841 522 q 874 483 874 497 q 872 469 874 476 q 869 455 871 462 l 881 441 q 828 201 881 255 q 792 170 809 185 q 705 45 706 46 q 597 -6 667 -6 q 546 -6 554 -6 q 535 -6 540 -6 q 515 6 532 -4 q 493 42 498 17 q 483 91 487 67 q 466 113 472 105 m 106 -19 q 172 69 151 38 q 247 180 242 163 q 261 206 252 198 q 279 224 276 220 q 336 304 306 258 q 392 385 373 358 q 509 542 450 467 q 618 678 539 580 q 740 833 691 769 l 755 872 l 798 867 q 807 849 802 858 q 798 830 807 845 q 755 776 783 806 q 702 726 726 745 q 691 708 699 724 q 679 685 683 692 l 616 590 q 361 266 489 427 l 347 241 l 310 194 l 290 159 q 248 103 284 149 q 150 -21 154 -15 q 141 -49 144 -29 q 116 -42 137 -46 q 95 -32 95 -39 q 106 -19 95 -26 m 50 399 q 46 419 46 413 q 45 444 45 426 q 51 541 45 465 q 143 733 58 617 q 298 867 234 858 q 328 864 313 870 q 365 849 344 858 q 384 854 373 854 q 406 854 395 854 q 427 794 419 828 q 433 766 430 783 q 446 728 442 751 q 451 683 451 706 q 445 617 451 648 q 433 570 440 587 q 388 460 422 523 q 329 381 361 410 q 309 365 321 373 q 276 340 282 345 q 255 310 268 333 q 233 283 242 287 q 215 279 223 279 q 191 285 208 279 q 161 292 174 292 q 147 290 152 290 q 82 315 107 285 q 50 399 58 344 m 619 85 q 688 149 663 102 q 725 247 701 173 q 739 311 732 269 q 743 334 740 323 l 746 340 l 746 381 l 746 395 q 746 424 746 416 q 738 453 746 444 q 714 469 731 462 q 644 411 690 480 q 592 279 597 342 q 587 167 587 216 q 597 89 587 106 q 619 85 604 80 m 172 413 q 179 389 172 399 q 196 379 186 379 q 207 381 199 379 q 278 442 264 410 q 305 506 291 473 q 324 555 317 517 q 331 635 331 592 q 322 731 331 692 q 295 766 313 769 q 233 722 264 760 q 195 647 203 683 q 176 569 181 594 q 172 509 172 545 l 172 474 l 172 413 "},"#":{"x_min":134.328125,"x_max":1113.078125,"ha":1313,"o":"m 1021 685 q 974 680 986 685 q 962 673 962 675 q 806 644 902 661 q 687 624 694 625 q 600 608 651 615 q 496 593 549 600 l 274 548 l 167 548 q 177 553 172 552 q 232 563 202 559 q 259 566 237 566 q 285 568 281 566 l 341 581 l 501 610 q 603 625 531 613 q 729 649 657 635 q 854 672 806 665 q 878 675 866 673 q 909 685 878 680 q 956 693 956 692 l 1028 706 l 1113 706 q 1081 693 1113 704 q 1021 685 1064 685 m 989 963 q 941 958 953 963 q 929 951 929 953 q 774 922 869 939 q 654 902 661 903 q 567 886 618 893 q 463 871 516 878 l 241 826 l 134 826 q 145 831 139 830 q 199 841 169 837 q 226 844 205 844 q 252 846 248 844 l 308 859 l 469 888 q 571 903 499 891 q 696 927 624 913 q 821 950 774 943 q 845 953 834 951 q 876 963 845 958 q 924 971 924 970 l 996 984 l 1080 984 q 1049 971 1080 982 q 989 963 1031 963 m 617 1146 q 602 1101 606 1134 q 598 1060 598 1068 q 552 861 580 975 q 516 719 519 729 q 491 610 507 662 q 461 511 475 559 l 394 218 l 363 178 q 365 227 363 218 q 382 303 372 275 q 390 322 383 313 q 397 342 397 331 l 414 427 l 462 625 q 492 729 470 644 q 530 889 508 795 q 567 1050 552 1004 q 574 1068 571 1060 q 583 1135 574 1109 q 597 1193 597 1183 l 618 1297 l 644 1268 q 635 1193 644 1268 q 617 1146 629 1146 m 845 1134 q 836 1091 839 1124 q 834 1049 834 1059 q 805 849 823 964 q 783 708 784 718 q 768 600 778 653 q 749 500 759 548 l 708 207 l 690 168 q 691 217 690 207 q 700 291 695 264 q 706 311 702 302 q 710 330 710 320 l 720 414 l 749 614 q 768 718 754 632 q 791 878 778 783 q 814 1040 805 993 q 819 1059 816 1049 q 824 1124 819 1096 q 833 1180 833 1171 l 846 1286 l 862 1257 q 854 1180 862 1257 q 845 1134 854 1134 "},"_":{"x_min":-233,"x_max":879.359375,"ha":788,"o":"m 590 129 l 879 160 l 780 123 l 780 74 q 698 34 780 48 q 537 15 657 26 q 379 11 496 11 q 239 11 262 11 q 50 11 123 11 q -39 16 -21 11 q -173 27 -114 16 q -233 62 -233 38 q -219 84 -233 73 q -148 106 -174 99 q 12 129 -62 129 q 360 129 265 129 q 590 129 455 129 "},"+":{"x_min":-20.8125,"x_max":456,"ha":512,"o":"m 239 870 l 220 822 l 230 785 l 230 775 l 220 731 l 212 683 l 212 674 l 212 646 l 202 628 l 202 619 l 202 600 l 202 590 l 202 572 l 175 563 l 157 563 l 129 563 l 129 563 l 102 563 l 83 545 l 57 545 l 48 554 l 21 554 l -4 554 l -14 554 l -14 527 l -20 509 l -14 489 l -14 480 l -20 480 l -4 462 l 11 462 l 21 472 l 48 462 l 57 462 l 93 472 l 112 462 l 139 462 l 167 462 l 193 462 l 193 462 l 193 442 l 193 434 l 202 414 l 183 379 l 175 379 l 175 351 l 167 323 l 167 297 l 167 277 l 167 259 l 167 230 l 167 222 l 157 192 l 157 183 l 182 183 l 192 183 l 202 183 l 220 192 l 239 202 l 239 230 l 239 259 l 265 277 l 265 297 l 265 331 l 274 360 l 274 388 l 256 388 l 275 414 l 275 452 l 292 462 l 319 472 l 338 462 l 373 462 l 391 472 l 420 472 l 420 480 l 447 480 l 456 480 l 456 489 l 456 527 l 447 545 l 428 554 l 383 554 l 355 563 l 319 563 l 319 563 l 311 563 l 292 563 l 284 582 l 292 610 l 302 638 l 302 656 l 328 683 l 319 731 l 319 767 l 319 794 l 319 822 l 311 850 l 302 870 l 284 870 l 274 877 l 265 877 l 239 870 "},")":{"x_min":52,"x_max":442,"ha":484,"o":"m 292 998 q 342 948 326 965 q 396 881 393 895 q 395 854 402 873 q 388 833 388 836 q 392 823 388 826 q 429 770 416 804 q 442 656 442 736 q 442 631 442 638 q 440 604 442 615 q 429 538 435 573 q 399 459 424 504 q 374 384 374 415 q 342 272 374 329 q 287 166 294 186 q 279 121 282 139 q 263 93 277 104 q 173 14 225 61 q 102 -55 121 -33 q 72 -78 83 -78 q 57 -65 62 -78 q 52 -38 52 -52 q 53 -23 52 -27 q 60 -22 56 -17 q 122 62 65 -22 q 239 279 196 170 q 302 570 302 432 q 259 806 302 674 q 216 919 245 851 q 235 935 210 931 q 266 945 259 938 q 292 998 292 969 "},"'":{"x_min":38.484375,"x_max":197.375,"ha":214,"o":"m 197 747 q 161 665 199 740 q 106 572 123 590 q 92 568 101 568 q 78 569 84 568 q 76 570 77 569 q 65 559 69 562 q 43 551 51 547 q 40 568 35 555 q 51 595 46 581 q 69 685 66 676 q 92 761 78 724 q 97 787 95 777 q 152 798 100 798 q 155 791 155 793 q 161 786 159 784 q 179 796 172 796 q 191 776 187 796 q 197 747 195 757 "},"a":{"x_min":46,"x_max":504.953125,"ha":540,"o":"m 495 538 q 476 440 502 534 q 460 352 460 381 q 441 271 460 339 q 432 185 432 235 q 469 110 432 128 q 504 89 506 92 q 439 30 491 70 q 345 -17 376 -17 q 331 -12 338 -17 q 329 -10 329 -11 q 322 31 322 1 q 331 127 322 64 q 315 163 337 163 q 303 153 303 163 q 218 60 305 142 q 101 -21 131 -21 q 92 -5 94 -21 q 60 25 89 10 q 46 41 46 32 q 46 97 46 70 q 46 150 46 124 q 53 230 46 196 q 86 307 60 264 q 92 329 90 315 q 96 349 93 342 q 185 439 104 368 q 296 524 266 509 q 313 529 304 529 q 356 524 334 524 q 405 552 379 529 q 428 576 413 559 q 465 550 439 559 q 495 538 491 541 m 360 476 q 257 433 326 492 q 188 320 188 374 q 173 264 188 299 q 164 230 164 243 q 164 203 164 221 q 164 178 164 185 q 167 149 164 158 q 180 124 170 139 q 230 148 189 114 q 296 217 271 182 q 304 228 301 225 l 305 230 q 301 230 303 230 q 346 342 300 243 q 374 442 374 400 q 360 476 374 471 "},"T":{"x_min":41.59375,"x_max":932,"ha":984,"o":"m 806 715 q 772 723 796 719 q 730 727 748 727 q 651 711 688 727 q 593 657 614 695 q 573 632 587 647 q 547 604 559 616 q 533 586 535 591 q 523 555 526 576 q 512 520 520 533 q 497 494 504 507 q 491 467 491 480 q 491 446 491 453 q 489 433 491 437 q 478 406 486 422 q 467 376 470 390 q 462 358 463 363 q 461 333 461 350 q 469 276 461 308 q 480 233 477 243 q 492 212 482 222 q 520 183 519 186 q 549 118 534 150 q 592 84 565 96 q 648 73 619 73 q 749 97 699 73 q 826 157 800 122 q 827 147 826 151 q 809 86 821 110 q 820 77 811 85 q 826 64 830 68 q 755 15 789 29 q 703 6 730 6 q 680 7 692 6 q 665 7 668 8 q 633 -5 650 0 q 604 -12 617 -12 q 582 -9 595 -12 q 565 -7 568 -7 q 549 -9 556 -7 l 533 -12 q 504 -13 523 -13 q 385 27 437 -13 q 326 132 333 67 q 325 154 325 140 q 329 192 325 171 l 287 205 q 281 237 281 208 q 311 407 281 312 q 410 576 349 526 q 486 676 448 626 q 515 691 493 682 q 542 715 537 701 q 531 739 549 731 q 484 747 514 747 q 449 745 466 747 q 427 743 432 743 q 417 737 422 743 q 405 731 410 732 q 388 736 398 731 q 373 740 379 741 q 254 670 322 726 q 146 522 169 601 q 140 456 140 490 q 140 399 140 428 q 140 365 140 370 q 170 329 140 358 q 172 311 181 318 q 156 307 166 307 q 140 309 146 307 q 131 311 137 309 l 84 358 q 84 392 84 375 q 58 413 81 401 q 43 433 36 424 q 92 605 62 529 q 170 705 122 682 q 177 714 177 709 q 161 737 168 727 q 155 756 155 747 q 159 777 155 767 q 212 800 163 786 q 256 816 244 808 q 322 858 316 855 q 397 875 356 875 q 465 858 429 875 q 578 821 545 821 q 613 821 595 821 q 648 821 631 821 q 678 821 661 821 q 706 823 695 821 q 800 860 752 842 q 813 858 808 860 q 832 850 820 857 q 854 840 845 843 q 883 841 865 837 q 902 845 900 845 q 919 836 913 845 q 924 818 924 830 q 926 790 924 807 q 932 759 929 774 q 910 720 932 733 q 857 707 889 707 q 806 715 831 707 "},"=":{"x_min":60,"x_max":477.75,"ha":534,"o":"m 360 667 l 457 667 l 430 662 l 430 614 q 400 573 430 587 q 341 554 385 566 q 283 550 326 550 q 232 550 240 550 q 164 550 190 550 q 130 556 137 550 q 81 567 103 556 q 60 601 60 578 q 65 623 60 612 q 91 646 81 639 q 149 667 122 667 q 277 667 242 667 q 360 667 311 667 m 371 457 l 477 488 l 441 451 l 441 402 q 411 362 441 376 q 352 343 396 354 q 294 339 337 339 q 243 339 251 339 q 175 339 201 339 q 141 344 148 339 q 92 355 114 344 q 71 390 71 366 q 76 412 71 401 q 102 434 92 427 q 160 457 133 457 q 287 457 253 457 q 371 457 322 457 "},"N":{"x_min":51.578125,"x_max":743.53125,"ha":786,"o":"m 497 311 q 520 425 503 352 q 538 513 538 498 q 536 526 538 523 q 529 528 535 530 q 369 390 462 515 q 221 148 299 294 q 142 -16 160 31 q 131 -25 138 -25 q 103 -9 122 -25 q 51 31 77 11 q 106 297 76 149 q 137 556 137 445 q 134 624 137 597 q 110 659 131 652 q 86 676 89 666 q 82 696 82 687 q 86 717 82 705 l 121 730 l 121 794 l 156 808 q 183 840 161 826 q 230 854 206 854 q 275 835 257 854 q 293 778 293 817 q 293 690 293 709 q 287 672 293 672 q 283 676 284 676 q 275 659 278 670 q 273 588 273 648 q 264 506 273 527 q 244 462 253 483 q 224 398 224 417 q 243 372 224 376 q 321 458 255 369 q 469 669 394 563 q 481 667 473 672 q 492 666 490 663 q 518 714 516 710 q 552 760 531 735 q 599 804 574 785 q 658 840 624 823 l 699 858 q 724 847 717 849 q 743 798 743 837 q 739 749 743 760 q 732 730 735 737 q 738 714 735 723 q 717 707 724 710 q 692 685 696 698 q 697 663 689 676 q 705 644 705 651 q 678 613 705 631 q 661 592 665 603 q 670 540 657 578 q 673 512 677 520 q 608 309 635 427 q 581 116 581 191 q 601 51 581 55 q 626 54 612 48 q 649 58 640 59 q 660 36 660 55 q 702 12 660 18 q 702 -18 702 -2 q 683 -48 697 -27 q 610 -74 665 -52 q 546 -93 571 -90 q 476 -59 524 -93 q 423 2 423 -22 q 444 104 423 22 q 488 237 465 187 q 497 271 497 251 q 497 311 497 291 "},"":{"x_min":13.328125,"x_max":504.953125,"ha":540,"o":"m 495 538 q 476 440 502 534 q 460 352 460 381 q 441 271 460 339 q 432 185 432 235 q 469 111 432 129 q 504 90 506 93 q 439 30 491 70 q 345 -17 376 -17 q 331 -12 338 -17 q 329 -10 329 -11 q 322 31 322 1 q 331 127 322 65 q 315 164 337 164 q 303 154 303 164 q 218 61 305 143 q 101 -21 131 -21 q 92 -5 94 -21 q 60 26 89 10 q 46 41 46 33 q 46 97 46 70 q 46 151 46 125 q 53 230 46 197 q 86 307 60 264 q 92 329 90 315 q 96 349 93 342 q 185 439 104 368 q 296 524 266 509 q 313 529 304 529 q 356 524 334 524 q 405 552 379 529 q 428 576 413 559 q 465 550 439 559 q 495 538 491 541 m 360 476 q 257 433 326 492 q 188 320 188 374 q 173 264 188 299 q 164 230 164 243 q 164 203 164 221 q 164 179 164 186 q 167 149 164 159 q 180 125 170 140 q 230 149 189 115 q 296 217 271 183 q 304 228 301 225 l 305 230 q 301 230 303 230 q 346 342 300 243 q 374 442 374 400 q 360 476 374 471 m 13 744 l 111 818 l 147 818 l 188 783 l 236 783 l 339 721 l 448 794 l 476 760 l 448 721 l 361 655 l 165 744 l 18 683 l 13 744 "},"2":{"x_min":53,"x_max":606,"ha":648,"o":"m 603 605 q 502 365 581 461 q 348 196 424 280 q 318 154 328 171 q 308 133 308 137 q 321 132 314 132 q 345 132 339 136 q 362 128 352 128 q 377 128 371 128 q 405 138 390 132 q 424 132 413 138 q 439 127 435 127 q 505 127 495 127 q 520 128 515 127 q 541 115 521 124 q 561 92 561 107 q 550 58 561 76 q 564 53 559 56 q 586 35 581 44 q 597 25 597 29 q 594 9 597 20 q 495 -1 591 -1 q 377 -1 443 -1 q 242 -1 312 -1 q 192 1 224 -1 q 106 -11 118 -11 q 81 -2 88 -11 q 53 74 57 28 q 59 117 53 110 q 132 132 73 132 q 299 268 190 132 q 432 541 416 413 q 434 558 434 549 q 434 574 434 569 q 387 711 434 653 q 287 770 340 770 q 241 752 261 770 q 211 698 220 734 q 195 651 201 663 q 183 640 189 640 q 174 647 181 640 q 160 659 167 655 q 147 691 140 674 q 163 775 152 702 q 175 852 174 849 q 182 865 179 865 q 245 852 185 865 q 260 851 250 851 q 309 859 276 851 q 359 868 341 868 q 531 812 463 868 q 606 650 606 751 q 606 633 606 639 q 603 605 606 625 "},"j":{"x_min":46,"x_max":293,"ha":324,"o":"m 225 228 q 175 -41 210 162 q 136 -196 149 -191 q 109 -213 123 -200 q 82 -228 95 -225 q 55 -232 69 -230 q 48 -223 51 -234 q 46 -196 46 -213 q 51 -128 46 -170 q 63 -52 57 -85 q 106 136 90 50 q 123 283 123 222 q 123 422 123 353 q 92 455 128 433 q 88 465 90 459 q 141 517 113 468 q 187 566 170 566 q 208 552 198 566 q 217 543 213 545 q 228 543 223 540 q 239 546 233 546 q 266 534 248 546 q 276 497 276 529 q 269 423 276 466 q 253 339 258 368 q 241 283 248 311 q 225 228 233 255 m 289 816 q 288 793 291 804 q 285 777 285 782 q 289 755 285 768 q 293 730 293 741 q 255 690 293 690 q 239 680 250 680 q 224 681 229 680 q 203 688 213 685 q 176 696 193 691 q 162 726 162 705 q 163 738 162 734 q 160 746 164 742 q 151 760 151 757 q 167 789 148 774 q 194 807 189 803 q 206 802 197 809 l 217 816 l 289 816 "},"Z":{"x_min":59,"x_max":846,"ha":892,"o":"m 197 746 q 185 778 187 769 q 183 823 183 788 q 197 870 183 848 q 230 892 212 892 q 257 868 245 892 q 286 833 268 844 q 355 810 297 826 q 419 801 388 801 q 435 801 427 801 q 452 804 446 804 q 468 816 460 809 q 497 819 483 819 q 539 819 524 819 q 574 822 560 819 q 612 840 589 826 q 664 856 625 847 q 728 865 704 865 q 754 858 747 865 q 768 820 768 843 q 712 716 768 781 q 642 634 677 674 q 629 595 629 615 q 630 578 629 587 q 634 563 632 570 q 629 544 634 555 q 585 510 619 526 q 543 474 550 495 q 544 453 541 466 q 548 436 548 440 q 541 423 548 427 q 524 419 533 420 q 441 314 486 376 q 387 237 434 305 q 342 187 385 234 q 311 135 311 153 q 327 109 311 119 q 384 93 344 99 q 509 68 474 82 q 591 45 570 45 q 620 50 602 45 q 646 56 638 56 q 666 49 658 56 q 675 39 670 43 q 694 45 688 45 q 717 42 703 46 q 732 39 731 39 q 774 67 750 39 q 810 86 799 96 q 836 58 826 71 q 846 39 846 46 q 824 18 846 29 q 800 -6 803 8 q 781 -40 796 -20 q 757 -76 762 -66 q 670 -126 731 -126 q 596 -112 640 -126 q 325 -23 456 -64 q 129 30 170 25 q 73 43 87 36 q 59 58 59 50 q 73 78 59 68 q 98 93 87 89 q 199 186 132 104 q 330 368 236 232 q 461 558 415 491 q 463 569 463 559 q 465 583 463 580 q 487 590 476 585 q 497 621 491 601 q 503 656 503 641 q 465 701 503 701 q 427 691 450 701 q 398 685 414 688 q 368 683 382 683 q 344 687 361 683 q 317 688 328 692 q 296 673 306 680 q 219 692 237 684 q 202 712 202 701 q 202 729 202 719 q 197 746 202 739 "},"u":{"x_min":45.578125,"x_max":536.109375,"ha":580,"o":"m 330 76 q 311 82 319 82 q 296 75 303 82 q 283 64 288 69 q 211 20 252 47 q 166 -11 170 -6 q 145 -19 160 -19 q 77 11 114 -19 q 46 72 40 41 q 76 212 65 152 q 98 404 98 325 q 98 433 98 423 q 95 477 98 463 q 81 512 93 490 q 110 539 100 530 q 159 568 141 565 q 184 566 171 566 q 197 567 192 566 q 217 552 210 568 q 225 519 225 536 q 227 474 223 504 q 231 441 231 444 q 228 425 231 429 q 201 332 219 409 q 180 184 180 240 q 211 107 180 113 q 339 215 276 93 q 396 432 396 327 q 381 490 396 468 q 370 515 367 512 q 422 555 385 536 q 474 571 459 573 q 514 539 489 568 q 536 507 522 529 q 487 323 518 507 q 456 155 464 190 q 455 147 455 151 q 455 140 455 141 q 468 98 455 116 q 489 79 476 86 q 498 64 498 72 q 492 53 498 57 q 469 34 475 46 q 459 19 463 22 q 428 8 452 14 q 391 -19 405 1 q 367 -19 387 -23 q 343 -16 347 -16 q 335 29 335 -16 q 330 76 335 75 "},"1":{"x_min":37.109375,"x_max":316,"ha":361,"o":"m 248 271 q 240 234 246 257 q 234 191 234 210 q 227 178 234 185 q 210 156 210 163 q 214 99 210 139 q 218 44 218 59 q 216 26 218 31 q 210 19 215 17 q 174 22 192 22 q 118 14 146 22 q 61 -16 90 6 q 52 -21 54 -22 q 48 -9 48 -18 q 53 21 48 0 q 62 60 58 44 q 84 202 65 77 q 118 427 111 385 q 150 624 132 521 q 131 699 156 664 q 64 734 106 734 q 37 729 52 734 q 79 759 57 743 q 234 849 156 803 q 266 859 246 859 q 301 840 287 859 q 316 772 316 821 q 316 740 316 759 q 310 700 316 721 q 277 499 286 568 q 274 470 276 482 q 261 444 272 457 q 247 425 250 431 q 239 400 242 414 q 237 373 237 385 q 242 322 237 359 q 248 271 248 285 "},"k":{"x_min":49.515625,"x_max":616.234375,"ha":637,"o":"m 364 1103 q 350 917 364 987 q 301 716 326 816 q 281 592 298 692 q 269 481 269 522 q 274 458 269 466 q 307 469 283 444 q 529 669 428 594 q 573 686 553 686 q 606 670 593 686 q 615 641 619 655 q 598 627 606 634 q 594 616 594 624 q 598 598 594 611 q 603 579 603 586 q 595 566 603 570 l 585 559 q 586 549 584 555 q 587 540 590 541 q 540 511 562 524 q 472 461 497 484 q 452 448 463 454 q 417 430 421 434 q 386 401 394 411 q 371 366 371 383 q 418 240 371 327 q 510 151 472 141 q 568 164 558 164 q 581 150 578 164 q 584 126 584 136 q 568 82 584 98 q 551 72 564 78 q 534 62 537 67 q 527 44 530 57 q 519 21 523 31 q 462 -23 496 -23 q 394 15 431 -23 q 342 91 362 49 q 274 238 288 216 q 233 270 254 254 q 213 182 221 215 q 170 18 190 87 q 148 -20 161 -8 q 120 -33 135 -33 q 76 -12 97 -33 q 49 32 55 7 q 81 211 45 46 q 152 570 131 449 q 192 965 192 809 q 175 1006 192 974 q 167 1033 167 1021 q 171 1053 167 1042 q 180 1076 175 1065 q 209 1105 183 1080 q 233 1141 223 1117 q 284 1183 250 1183 q 337 1155 311 1183 q 364 1103 364 1128 "},"<":{"x_min":-58.53125,"x_max":586.421875,"ha":529,"o":"m 9 456 q 41 436 34 454 q 49 417 49 419 q 155 317 92 374 q 234 247 230 251 q 294 195 259 219 q 364 145 329 170 l 512 2 l 586 -13 q 575 6 579 0 q 538 43 560 30 q 519 52 533 47 q 504 61 506 58 l 465 104 l 359 202 q 293 252 338 212 q 209 333 255 288 q 121 413 153 388 q 105 422 114 417 q 85 452 105 437 q 53 478 54 476 l 5 530 l -54 519 q -31 481 -51 517 q 9 456 -20 459 m 512 957 q 482 939 489 955 q 474 923 474 923 q 368 831 431 883 q 291 767 295 770 q 231 719 265 741 q 162 676 197 698 l 14 545 l -58 530 q -47 549 -51 542 q -10 583 -32 570 q 7 590 -5 585 q 21 598 20 595 l 61 637 l 167 726 q 231 773 187 735 q 315 845 269 805 q 402 919 370 895 q 419 927 409 923 q 436 953 419 939 q 470 978 469 976 l 517 1024 l 576 1014 q 553 980 574 1013 q 512 957 542 960 "},"t":{"x_min":46.390625,"x_max":365,"ha":402,"o":"m 226 456 q 216 354 228 426 q 188 179 188 185 q 242 100 196 121 q 267 95 252 95 q 333 109 284 95 q 348 109 340 109 q 343 89 347 100 q 328 48 332 61 q 288 19 324 35 q 197 -12 241 0 q 149 -19 167 -19 q 73 25 95 -19 q 60 106 60 54 q 60 131 60 118 q 60 145 60 143 q 60 158 57 153 q 65 163 61 163 q 79 164 79 163 q 96 335 79 225 q 115 436 102 372 q 109 449 111 444 q 79 463 96 463 q 50 456 68 463 q 46 458 47 457 q 50 478 49 474 q 106 521 51 483 q 144 561 132 539 q 154 610 154 575 q 170 660 154 644 q 194 678 188 671 q 207 701 201 686 q 216 721 213 717 q 253 750 230 737 q 292 763 276 763 q 305 757 303 763 q 285 687 307 751 q 263 594 263 624 q 271 565 263 571 q 290 560 279 560 q 310 564 298 560 q 343 574 339 574 q 358 564 352 574 q 362 554 360 557 q 365 541 365 547 q 341 525 365 529 q 310 512 317 521 q 303 496 306 508 q 292 481 301 485 q 248 469 288 479 q 226 456 224 464 "},"W":{"x_min":55.625,"x_max":1347.609375,"ha":1372,"o":"m 862 894 q 891 891 876 893 q 911 893 899 893 q 932 893 924 893 q 1106 883 1004 893 q 1317 862 1208 873 q 1341 844 1332 862 q 1345 813 1351 827 q 1330 805 1342 805 q 1303 808 1312 808 q 1290 803 1294 808 q 1282 785 1282 797 q 1298 745 1282 771 q 1314 711 1315 718 l 1304 701 q 1298 675 1298 690 q 1300 650 1298 670 q 1302 625 1303 631 q 1310 617 1300 621 q 1321 613 1319 614 q 1323 600 1323 610 q 1306 527 1323 579 q 1273 426 1289 475 q 1231 304 1240 327 q 1194 240 1221 281 q 1018 53 1122 128 q 824 -22 914 -22 q 740 101 774 -22 q 690 224 706 224 q 585 116 675 224 q 447 -2 495 7 q 412 -8 431 -5 q 385 -12 393 -12 q 344 3 356 -12 q 339 19 339 10 q 337 42 339 37 q 284 220 296 171 q 253 446 253 344 q 266 614 253 512 q 282 705 270 649 q 259 721 282 721 q 212 714 248 721 q 152 707 175 707 q 120 711 135 707 q 58 805 73 724 q 58 846 52 841 q 194 858 61 846 q 480 886 382 886 q 728 886 662 886 q 747 908 737 886 q 765 935 756 931 q 806 918 782 942 q 862 894 830 894 m 1223 721 q 1224 750 1221 726 q 1228 777 1228 774 q 1192 800 1228 800 q 1000 800 1083 800 q 906 778 917 800 q 862 756 873 776 q 841 682 851 737 q 826 573 831 627 q 822 450 822 519 q 845 217 822 312 q 906 137 868 122 q 1134 401 1028 186 q 1226 697 1226 587 q 1223 721 1226 709 m 498 154 q 609 322 540 197 q 697 567 697 479 l 697 613 q 715 695 707 660 q 723 750 723 731 q 709 776 723 776 q 677 776 691 776 q 653 776 664 776 q 391 747 502 776 q 351 715 371 730 q 367 694 357 711 q 387 677 376 677 q 403 681 393 677 q 419 686 413 686 q 445 670 434 683 q 447 647 457 657 q 412 549 425 625 q 400 384 400 473 q 405 283 400 327 q 416 205 410 238 q 454 160 425 172 q 485 149 469 154 q 498 154 492 149 "},"v":{"x_min":50.25,"x_max":518,"ha":563,"o":"m 210 545 q 221 552 215 552 q 232 521 232 552 q 223 471 232 490 q 197 395 199 409 q 192 358 195 381 q 186 285 190 335 q 182 207 182 235 q 194 101 182 139 q 237 71 206 63 q 328 120 302 86 q 369 197 353 167 q 400 264 395 247 q 405 363 405 281 q 390 434 405 414 q 285 466 365 466 q 281 471 282 468 q 291 491 282 486 q 345 526 301 496 q 426 567 403 567 q 458 560 452 569 q 471 543 464 552 q 502 524 490 532 q 514 503 514 517 q 516 469 514 489 q 518 436 518 449 q 399 110 518 250 q 203 -12 296 -12 q 94 37 127 -5 q 61 147 61 79 q 54 174 56 160 q 58 201 54 197 q 64 210 64 207 q 71 268 68 235 q 74 329 74 300 q 70 360 70 350 q 76 379 70 371 q 86 415 83 386 q 89 471 89 443 q 68 485 75 481 q 51 510 45 502 q 83 526 72 521 q 124 545 119 545 q 164 564 132 545 q 179 574 169 567 q 200 565 195 574 q 198 553 203 561 q 198 545 194 546 q 209 539 203 542 q 210 545 209 542 "},">":{"x_min":-58.421875,"x_max":586.53125,"ha":529,"o":"m 518 456 q 486 436 493 454 q 479 417 479 419 q 372 317 435 374 q 293 247 297 251 q 233 195 268 219 q 163 145 198 170 l 15 2 l -58 -13 q -47 6 -51 0 q -10 43 -32 30 q 8 52 -5 47 q 23 61 21 58 l 62 104 l 168 202 q 234 252 189 212 q 318 333 272 288 q 406 413 374 388 q 423 422 413 417 q 442 452 423 437 q 474 478 473 476 l 522 530 l 582 519 q 559 481 579 517 q 518 456 548 459 m 15 957 q 45 939 38 955 q 53 923 53 923 q 159 831 96 883 q 236 767 232 770 q 296 719 262 741 q 365 676 330 698 l 513 545 l 586 530 q 575 549 579 542 q 538 583 560 570 q 520 590 533 585 q 506 598 507 595 l 466 637 l 360 726 q 296 773 340 735 q 212 845 258 805 q 125 919 157 895 q 109 927 118 923 q 91 953 109 939 q 57 978 58 976 l 11 1024 l -48 1014 q -25 980 -46 1013 q 15 957 -14 960 "},"s":{"x_min":50.25,"x_max":396.90625,"ha":440,"o":"m 175 531 q 222 557 192 549 q 291 565 253 565 q 363 559 324 565 q 396 553 375 558 q 377 523 400 540 q 365 516 373 520 q 371 508 367 512 q 374 497 377 501 l 351 455 q 309 466 344 450 q 273 478 285 478 q 247 468 258 478 q 218 412 218 441 q 317 287 218 389 q 365 198 365 238 q 352 134 365 173 q 345 115 351 127 q 279 72 321 102 q 182 0 230 36 q 148 -7 166 -7 q 74 11 107 -7 q 53 51 41 30 q 65 88 61 63 q 80 114 68 114 q 91 116 82 114 q 107 119 101 119 q 139 95 128 119 q 173 79 146 79 q 221 94 198 79 q 245 137 245 110 q 242 156 245 149 q 159 259 220 220 q 108 340 108 291 q 141 476 108 432 q 175 502 152 490 q 176 516 181 505 q 175 531 171 527 "},"B":{"x_min":52,"x_max":930,"ha":978,"o":"m 567 586 q 549 435 549 477 q 536 367 549 394 q 525 360 535 363 q 515 352 516 358 q 400 126 487 214 q 253 21 347 72 q 232 -1 247 17 q 203 -20 218 -20 q 192 -15 196 -20 q 147 12 180 -3 q 75 80 98 35 q 52 185 52 124 q 109 397 52 287 q 244 558 167 506 q 266 570 264 569 q 380 694 354 667 q 493 784 438 752 q 639 839 557 821 q 677 844 651 844 q 715 844 703 844 q 754 844 741 844 q 772 844 767 844 q 816 849 805 844 q 879 831 833 853 q 923 807 894 824 q 930 785 930 800 q 929 766 929 773 l 926 749 q 889 670 926 723 q 834 618 852 618 q 831 611 831 618 q 832 597 831 604 q 828 586 832 590 q 737 535 771 556 q 703 497 703 513 q 722 420 703 463 q 803 294 748 363 q 834 245 824 269 q 844 202 844 221 q 825 149 844 173 q 782 112 813 132 q 757 87 767 101 q 722 42 731 49 q 700 27 712 34 q 649 0 658 5 q 611 -19 628 -14 q 578 -25 594 -25 q 497 27 531 -25 q 469 110 469 71 q 470 121 469 118 q 477 124 473 125 q 496 114 483 123 q 517 106 509 106 q 528 108 523 106 q 539 112 538 112 q 562 106 549 112 q 582 100 575 100 q 664 148 634 100 q 690 252 690 190 q 647 402 690 322 q 596 487 622 444 q 607 515 588 501 q 690 579 669 561 q 727 656 710 598 q 744 759 744 713 q 739 795 744 784 q 722 803 734 806 q 612 749 670 789 q 452 615 589 733 q 430 584 441 606 q 407 558 419 562 q 221 359 307 510 q 145 143 145 224 q 162 112 145 112 q 271 153 219 112 q 366 239 319 196 q 405 271 385 255 q 481 442 455 331 q 511 570 496 506 q 531 612 517 595 q 555 628 544 628 q 569 602 569 628 q 567 586 569 591 "},"?":{"x_min":57,"x_max":574,"ha":615,"o":"m 108 31 q 107 45 107 36 q 129 92 107 73 q 179 106 151 110 q 215 92 202 101 q 229 62 229 83 q 228 47 229 52 q 206 -4 221 15 q 165 -25 191 -25 l 145 -25 l 122 -19 q 95 6 95 -8 q 108 31 101 19 m 259 285 q 255 246 255 264 q 259 199 255 231 q 242 174 260 191 q 210 158 225 158 q 191 180 195 158 q 173 180 190 185 q 147 178 156 176 q 118 231 118 188 q 128 281 118 256 q 166 369 147 324 q 260 433 199 433 q 365 487 326 433 q 404 608 404 541 q 364 724 404 688 q 277 754 333 754 q 239 751 254 754 q 202 741 225 748 q 108 698 134 719 q 89 676 99 687 q 78 683 85 683 q 64 681 67 681 q 59 688 59 681 q 61 703 59 689 q 57 717 57 713 q 78 733 57 723 q 99 759 99 744 q 97 773 97 769 q 102 791 96 783 q 125 808 108 799 q 152 821 142 817 q 177 839 171 834 q 205 849 191 849 q 229 839 214 849 q 255 830 244 830 q 278 839 264 830 q 302 849 291 849 q 334 839 315 851 q 365 832 353 827 q 384 848 378 843 q 409 854 391 854 q 489 831 450 854 q 519 780 529 809 q 533 762 516 773 q 574 670 574 733 q 560 584 574 617 q 520 516 553 566 q 448 435 493 471 q 373 394 404 399 q 306 384 342 389 q 259 285 270 366 "},"H":{"x_min":57,"x_max":861,"ha":905,"o":"m 623 471 q 692 729 663 622 q 752 840 720 836 q 778 834 762 841 q 802 833 794 827 q 839 850 827 850 q 861 811 861 850 q 831 705 861 751 q 802 679 816 691 q 800 665 800 675 q 804 647 800 659 q 808 627 808 634 q 802 612 808 619 l 793 602 q 780 557 780 587 q 780 523 780 534 q 771 480 780 497 q 745 446 757 463 q 736 382 744 430 q 729 300 729 333 q 732 243 729 279 q 750 154 735 207 q 778 92 764 101 q 793 60 793 82 q 772 8 793 32 q 711 -16 751 -16 q 665 -34 678 -16 q 642 -50 653 -53 q 609 -25 620 -46 q 591 19 598 4 q 577 112 577 55 q 612 329 577 178 q 617 385 624 384 q 594 400 608 386 q 570 414 581 414 q 545 407 556 414 q 507 382 526 394 q 462 370 485 374 q 416 367 439 367 q 379 367 398 367 q 341 367 360 367 q 306 375 327 367 q 278 384 285 384 q 259 378 268 384 q 247 364 249 372 q 243 330 243 354 q 240 296 243 307 q 238 270 238 285 q 238 244 238 255 q 238 196 238 215 q 213 137 238 153 q 196 117 199 129 q 194 89 194 105 q 194 58 194 68 q 192 39 194 53 q 188 12 190 25 q 177 -6 186 0 q 153 3 168 -10 q 130 17 138 17 q 107 8 120 17 q 84 3 93 0 q 66 20 70 8 q 59 48 62 32 q 57 72 57 64 q 87 140 57 89 q 102 186 102 167 q 124 360 102 240 q 170 607 146 479 q 194 801 194 734 q 189 850 194 829 q 200 870 188 858 q 233 883 213 883 q 259 878 248 883 q 287 858 270 873 q 325 843 297 850 q 360 820 353 837 q 326 627 367 801 q 300 475 312 551 q 342 478 311 478 q 405 478 358 478 q 476 478 451 478 q 517 471 497 478 q 578 459 575 459 q 600 460 594 459 q 623 471 609 463 "},"c":{"x_min":48,"x_max":434.515625,"ha":406,"o":"m 330 465 q 305 468 310 468 q 213 388 245 468 q 182 227 191 331 q 181 198 181 216 q 204 117 181 142 q 257 97 223 97 q 307 107 283 97 q 346 131 331 117 q 353 95 353 119 q 352 69 353 80 q 349 58 352 65 q 324 54 332 55 q 254 16 271 41 l 245 -2 q 204 -22 230 -22 q 179 -17 193 -22 q 156 -12 164 -13 q 95 41 137 -6 q 57 108 53 90 q 59 130 59 115 q 53 188 59 147 q 48 253 48 230 q 49 274 48 262 q 51 291 51 285 q 102 391 57 338 q 166 455 121 413 q 179 481 176 465 q 192 505 182 498 q 263 536 202 512 q 349 570 305 552 q 416 544 372 579 q 432 519 439 526 l 418 506 q 407 466 418 479 q 378 454 396 454 q 354 457 367 454 q 330 465 340 461 "},"&":{"x_min":50,"x_max":784,"ha":819,"o":"m 732 166 q 754 142 748 150 q 763 104 774 116 l 760 86 l 784 59 l 784 12 q 763 -7 778 2 q 728 -14 748 -18 q 638 22 687 -7 q 540 83 589 51 q 433 13 487 44 q 336 -18 379 -18 q 321 -17 327 -17 q 203 22 248 -8 q 139 123 150 58 q 96 167 118 135 q 54 269 70 205 q 50 301 50 285 q 190 480 50 394 q 330 547 236 508 q 347 649 330 612 q 403 722 365 686 l 427 733 q 460 753 443 743 q 493 734 470 753 q 542 693 515 715 q 563 669 552 686 q 566 665 566 666 q 570 647 570 657 q 564 619 570 634 q 513 527 538 548 q 460 499 485 513 q 456 476 456 491 q 489 344 456 423 q 541 270 522 266 q 602 372 567 277 q 629 392 616 381 q 650 376 644 381 q 664 345 670 356 l 640 309 l 650 294 l 638 196 l 632 173 q 647 137 629 155 q 683 119 665 119 q 698 127 694 119 q 717 157 710 150 q 732 166 724 164 m 193 234 q 197 158 193 182 q 225 111 202 134 q 281 89 248 89 q 346 104 308 89 q 423 135 384 119 q 438 152 433 139 q 447 173 442 164 q 449 184 449 180 q 435 212 447 199 q 369 373 423 226 q 336 436 347 434 q 239 372 285 436 q 193 234 193 308 "},"I":{"x_min":38.171875,"x_max":483,"ha":559,"o":"m 238 17 q 287 58 265 23 q 310 95 298 76 q 336 116 329 109 q 363 176 349 129 q 405 299 383 237 q 457 493 439 401 q 483 759 483 627 q 467 845 483 820 q 425 871 451 871 q 396 864 410 871 q 364 845 382 858 q 312 808 361 847 q 267 779 283 784 q 287 745 276 762 q 333 683 323 705 q 352 649 345 665 q 357 625 359 633 q 327 513 342 569 q 298 344 298 401 q 281 311 289 329 q 269 284 272 294 q 263 252 263 274 q 263 224 263 238 q 252 201 263 209 q 178 120 215 173 q 113 63 149 80 l 38 29 q 42 29 39 29 q 79 3 79 18 q 80 -10 84 0 q 79 -24 76 -20 q 104 -40 85 -40 q 113 -38 109 -40 q 119 -34 118 -35 l 190 12 q 207 17 198 17 q 238 17 222 17 "},"G":{"x_min":65,"x_max":761.71875,"ha":798,"o":"m 262 706 q 472 827 324 780 q 639 868 617 862 q 690 857 650 870 q 731 830 731 844 q 758 770 728 805 q 755 757 766 761 q 713 726 733 750 q 677 708 694 703 q 643 714 661 714 q 609 710 632 714 q 574 706 586 706 q 552 708 567 706 q 511 732 537 711 q 466 750 485 754 q 289 582 361 726 q 224 305 224 450 q 254 156 224 212 q 346 100 285 100 q 555 202 476 100 q 656 424 605 312 q 685 417 666 422 q 713 413 703 413 q 740 417 725 413 q 718 294 729 355 q 650 58 701 228 q 611 -70 612 -70 q 529 -113 587 -85 q 504 -124 521 -117 q 477 -114 485 -117 q 466 -99 462 -107 q 500 -9 484 -53 q 517 47 517 33 q 514 55 517 54 q 504 51 511 57 q 462 24 480 32 q 431 17 444 17 q 403 17 413 17 q 375 12 390 17 q 262 -12 315 -12 q 101 104 153 -12 q 65 304 65 187 q 78 422 65 381 q 115 517 100 471 q 128 539 119 529 q 161 571 145 554 q 173 602 166 579 q 190 635 179 625 q 202 643 194 639 q 228 657 224 654 q 247 683 237 665 q 262 706 258 700 "},"(":{"x_min":48,"x_max":458.078125,"ha":496,"o":"m 237 -30 q 207 -7 230 -36 q 191 0 196 6 q 159 -17 177 -17 q 113 -14 136 -14 q 106 -12 107 -15 q 105 -1 105 -9 q 107 29 105 6 q 109 56 109 52 q 100 113 109 85 q 70 167 92 141 q 48 235 48 194 q 48 258 48 247 q 53 274 52 270 q 83 305 68 290 q 73 316 83 310 q 48 358 48 330 q 53 377 48 370 q 100 499 68 413 q 193 727 147 616 q 255 834 232 816 q 336 873 294 849 q 391 924 373 909 q 457 959 423 941 q 407 889 460 955 q 286 682 336 803 q 184 260 210 501 q 183 234 183 252 q 203 106 183 184 q 237 -30 238 -29 "},"`":{"x_min":-36.859375,"x_max":246.171875,"ha":214,"o":"m -36 743 q 26 680 -39 738 q 123 608 92 622 q 147 607 129 607 q 171 607 161 607 q 175 607 174 607 q 196 600 189 600 q 235 594 220 587 q 241 605 253 594 q 220 627 230 616 q 189 696 194 688 q 147 756 171 728 q 138 777 142 767 q 42 787 133 787 q 38 780 38 780 q 27 774 31 774 q -5 783 8 783 q -27 767 -20 783 q -36 743 -34 752 "},"U":{"x_min":57,"x_max":763,"ha":807,"o":"m 104 752 l 101 784 l 78 800 q 157 860 119 840 q 246 888 206 888 q 318 849 292 888 l 330 855 l 349 833 l 308 761 l 311 746 q 313 728 313 739 q 299 670 313 699 q 255 572 257 578 q 227 467 247 538 q 193 296 193 345 q 227 232 193 240 q 372 340 252 228 q 575 582 507 467 q 603 663 589 606 q 628 788 615 725 q 646 799 631 793 q 664 813 661 805 q 664 833 664 823 q 691 840 668 840 q 735 817 718 840 q 754 788 740 811 q 763 749 763 774 q 717 615 763 685 q 695 602 706 608 q 654 460 668 511 q 614 239 614 306 q 625 195 614 200 q 646 191 636 191 q 681 200 659 191 q 704 204 702 209 q 712 181 712 193 q 707 159 712 173 l 704 149 l 704 124 q 634 70 691 103 q 588 5 588 44 q 566 -10 588 -10 q 537 0 547 -10 q 506 -7 532 0 q 487 -10 496 -10 q 465 22 465 -10 q 472 70 465 44 q 474 80 474 76 q 474 87 474 85 q 469 106 474 95 q 465 127 465 117 q 499 216 486 177 q 512 292 512 254 q 510 313 510 306 q 512 332 512 324 q 507 352 512 343 q 494 347 500 349 q 462 284 472 289 q 424 274 443 278 q 413 252 416 268 q 402 227 409 235 q 374 214 396 218 q 351 184 353 210 q 326 141 348 157 q 251 80 265 95 q 205 38 224 51 q 152 -7 169 15 q 125 5 134 0 q 81 40 96 21 q 61 85 66 59 q 57 146 57 110 q 92 424 57 265 q 164 739 127 583 q 153 763 169 763 q 129 757 146 763 q 104 752 111 752 "},"F":{"x_min":56,"x_max":728.90625,"ha":781,"o":"m 370 445 q 421 536 407 463 q 432 663 432 588 q 432 700 432 685 q 430 727 432 716 q 392 730 406 730 q 201 659 281 730 q 121 478 121 589 q 141 371 121 428 q 146 353 146 360 q 130 340 146 340 q 97 353 117 340 q 74 377 77 366 q 60 447 64 417 q 56 510 56 478 q 88 639 56 586 q 144 717 115 678 q 130 741 134 732 q 119 788 116 768 q 181 818 121 801 q 304 852 242 835 q 321 852 311 852 q 342 852 331 852 q 398 852 370 852 q 437 857 426 852 q 445 877 445 863 q 443 895 445 885 q 440 903 443 897 q 455 907 446 906 q 469 909 464 909 q 534 873 506 909 q 568 838 562 838 q 618 838 582 838 q 658 838 654 838 q 700 833 684 838 q 721 816 715 829 q 728 788 728 804 q 725 737 730 763 q 710 710 719 711 q 673 730 687 724 q 609 749 631 749 q 589 734 594 749 q 579 690 585 720 q 568 632 574 660 q 543 538 563 603 q 524 454 524 472 q 534 436 524 441 q 583 431 545 431 q 639 426 621 431 q 672 418 657 422 q 694 405 688 413 q 686 366 702 392 q 650 335 670 341 q 623 339 640 333 q 596 342 605 346 q 587 331 593 341 q 574 324 581 321 q 534 324 552 324 q 500 327 517 324 q 487 326 491 326 q 469 262 476 285 q 379 73 425 119 q 370 67 377 68 q 357 63 361 64 q 333 28 344 55 q 292 -19 314 -19 q 281 -18 285 -19 q 263 -13 266 -13 q 239 -25 257 -13 q 223 -32 231 -31 q 154 -15 187 -37 q 121 39 121 7 q 122 53 121 49 q 136 87 129 77 q 152 97 143 97 q 179 88 159 97 q 216 80 200 80 q 248 92 238 88 q 297 117 287 108 q 343 205 321 138 q 366 313 366 271 q 364 330 366 326 q 328 325 349 327 q 295 323 307 323 q 269 326 276 323 q 257 355 257 330 q 245 388 257 379 q 226 406 233 396 q 219 422 219 415 q 228 438 219 432 q 271 434 247 434 q 299 434 295 434 q 340 435 326 434 q 370 445 353 437 "},"r":{"x_min":42,"x_max":414.96875,"ha":459,"o":"m 47 63 q 69 204 56 98 q 86 336 82 311 q 96 386 90 360 q 103 428 103 413 q 97 457 103 440 q 84 500 84 497 q 88 511 84 509 q 112 534 104 527 q 153 560 139 556 q 199 536 164 563 q 235 509 212 528 q 224 499 229 503 q 212 486 207 493 q 212 455 212 467 q 222 435 212 443 q 244 440 235 424 q 278 509 261 474 q 333 549 310 535 q 379 560 365 568 q 404 532 390 553 q 414 511 408 525 q 400 489 400 499 q 405 475 400 485 q 408 460 410 465 q 375 404 391 418 q 337 391 359 391 q 307 396 322 391 q 229 318 280 406 q 179 159 179 231 q 194 77 179 109 q 210 53 198 66 q 177 22 190 41 q 160 3 165 3 q 139 5 147 5 q 108 0 126 5 q 74 -16 90 -4 q 62 -21 67 -21 q 42 24 42 -21 q 47 63 42 46 "},":":{"x_min":28.640625,"x_max":261,"ha":287,"o":"m 245 531 q 257 492 253 517 q 261 445 261 466 q 257 434 261 438 q 249 425 250 427 q 248 411 248 415 q 242 397 246 402 q 198 367 224 379 q 168 365 171 355 q 142 390 162 382 q 121 408 122 398 l 121 431 q 116 452 118 441 q 129 467 118 461 q 142 480 141 473 q 142 499 144 486 q 140 515 140 512 q 167 545 144 529 q 178 552 170 548 q 199 539 188 542 q 223 536 211 536 q 245 531 242 536 m 158 144 q 172 124 164 140 q 180 92 180 108 q 178 78 180 83 q 164 59 177 71 q 151 36 151 47 q 155 23 151 32 q 160 8 160 14 q 149 -7 158 -2 q 107 -12 139 -12 q 57 0 77 -12 q 29 39 37 10 q 70 133 21 65 q 111 158 96 169 q 127 142 119 150 q 144 142 134 139 q 158 144 154 146 "},"x":{"x_min":43.671875,"x_max":504.71875,"ha":558,"o":"m 504 79 q 483 37 489 51 q 452 -16 460 -6 q 427 -13 446 -23 q 401 -12 408 -3 q 371 -25 390 -25 q 352 -23 359 -25 q 338 -19 341 -19 q 291 97 310 51 q 257 144 272 144 q 187 58 243 144 q 106 -22 130 -26 q 60 1 83 -19 q 43 29 51 15 q 149 163 84 55 q 207 266 171 198 q 167 380 207 287 q 96 587 85 571 q 132 596 102 596 q 158 594 143 596 q 170 592 162 594 l 192 575 q 215 591 200 570 q 228 602 221 597 q 245 517 235 557 q 292 413 264 438 q 347 481 319 446 q 392 580 392 557 q 400 605 390 597 q 423 614 409 614 q 440 604 440 614 q 438 607 438 605 q 454 574 442 602 q 492 575 456 570 q 504 570 497 573 q 502 554 502 569 q 502 531 502 539 q 502 519 502 521 q 502 516 502 517 q 438 410 461 448 q 343 249 370 296 q 352 225 349 234 q 370 195 363 202 q 379 173 378 188 q 383 153 381 159 q 440 97 403 115 q 504 79 472 87 "},"*":{"x_min":37.828125,"x_max":402.53125,"ha":433,"o":"m 265 827 l 401 827 q 351 782 409 804 q 289 766 332 775 l 355 670 l 328 627 q 292 678 304 662 q 247 724 254 730 q 232 701 237 716 q 228 664 228 685 q 231 621 228 652 q 234 574 234 591 l 193 626 l 193 745 q 169 751 186 751 q 85 724 138 751 q 37 698 67 716 q 46 721 43 713 q 70 760 56 748 q 116 774 101 770 q 172 802 165 791 q 131 856 176 810 q 84 902 116 871 q 107 909 92 909 q 165 884 131 909 q 195 857 176 875 q 213 848 202 848 q 223 856 221 848 l 260 968 q 282 945 270 963 q 294 927 287 939 q 279 873 294 914 q 265 827 265 832 "},"V":{"x_min":51.8125,"x_max":757.3125,"ha":801,"o":"m 237 134 q 283 148 243 139 q 336 169 323 157 q 370 215 352 191 q 405 224 376 220 q 429 240 433 227 q 544 413 493 300 q 600 701 600 538 q 576 737 600 731 q 530 749 553 744 q 483 766 504 760 q 436 772 462 772 q 404 767 419 772 q 379 759 389 762 q 389 790 383 774 q 406 811 395 806 q 523 840 417 816 q 583 858 568 849 q 613 851 595 865 q 646 830 636 831 l 681 826 q 733 806 714 817 q 756 769 752 794 q 754 730 758 753 q 742 649 742 666 q 748 592 742 635 q 751 559 751 576 q 746 524 751 545 q 699 401 740 502 q 672 326 677 348 q 650 315 657 319 q 614 291 625 302 q 591 250 602 279 q 574 211 580 222 q 526 162 555 183 q 427 86 442 102 q 329 63 371 72 q 269 41 288 54 q 224 21 240 21 q 197 17 207 21 q 162 9 187 14 q 125 -6 137 4 q 122 -5 123 -5 q 121 10 121 4 q 121 44 121 25 q 121 83 121 62 q 115 154 121 127 q 104 177 114 159 q 97 205 95 194 q 110 320 110 227 q 129 599 110 529 q 131 640 131 615 q 92 742 131 706 q 52 766 80 753 q 61 781 48 776 q 162 826 104 799 q 254 854 220 854 q 290 838 278 854 q 302 795 302 822 q 290 727 302 765 q 269 659 278 690 q 235 458 250 597 q 220 222 220 320 q 225 141 220 159 q 237 134 230 137 "},"h":{"x_min":46,"x_max":555.34375,"ha":596,"o":"m 155 16 q 126 -11 151 -11 q 88 -3 112 -11 q 47 38 55 5 q 46 55 46 42 q 62 162 46 88 q 118 427 112 390 q 159 617 123 463 q 188 800 188 742 q 181 859 188 832 q 157 906 174 886 q 148 915 153 912 q 147 916 147 915 q 167 912 152 912 q 217 946 182 912 q 279 980 253 980 q 313 951 302 980 q 324 896 324 923 q 297 727 324 828 q 246 532 270 625 q 218 368 218 423 q 230 343 218 344 q 291 395 241 341 q 340 448 333 442 q 423 541 398 514 q 463 570 449 567 q 484 573 478 573 q 527 548 511 573 q 553 496 544 513 q 513 337 563 480 q 472 205 483 251 q 465 173 466 180 q 464 155 464 165 q 474 121 464 134 q 500 103 480 113 q 510 99 503 102 q 495 56 504 73 q 469 9 470 16 q 454 -2 465 -2 q 432 1 447 -2 q 413 5 417 5 q 400 2 408 5 q 386 -7 393 0 q 374 -16 379 -15 q 347 -11 359 -19 q 328 9 336 -4 q 321 37 321 23 q 322 55 321 48 q 328 75 325 64 q 400 333 363 203 q 390 382 400 361 q 379 389 387 389 q 257 266 338 389 q 155 16 168 133 "},"0":{"x_min":50,"x_max":725,"ha":774,"o":"m 203 663 q 260 728 211 671 q 338 810 288 760 q 399 851 365 836 q 466 866 433 866 q 645 775 565 866 q 725 567 725 684 q 723 547 725 559 q 722 531 722 536 q 670 267 697 346 q 633 173 651 220 q 621 142 636 152 q 562 82 572 109 q 519 73 558 73 q 468 57 481 73 q 449 21 458 39 q 322 -17 389 -17 q 169 48 233 -17 q 81 259 96 121 q 67 277 79 267 q 52 293 55 286 q 50 309 50 304 q 55 333 50 318 q 69 367 60 347 q 86 475 81 443 q 124 575 97 532 q 160 621 139 600 q 203 663 182 642 m 364 73 q 506 213 449 73 q 558 502 558 340 q 528 688 558 611 q 439 774 498 765 q 289 636 353 786 q 231 329 231 497 q 263 144 231 216 q 364 73 295 73 "},".":{"x_min":37,"x_max":198.421875,"ha":221,"o":"m 115 186 q 132 189 126 189 q 174 169 154 189 q 197 126 194 150 q 171 43 203 91 q 99 2 140 -5 q 45 40 64 8 q 37 66 37 48 q 47 122 37 89 q 61 130 49 127 q 76 139 73 133 q 94 172 90 168 q 115 186 100 180 "},"@":{"x_min":-24,"x_max":875.984375,"ha":884,"o":"m 656 833 q 637 735 663 829 q 621 646 621 676 q 603 566 621 634 q 594 480 594 530 q 630 405 594 423 q 666 384 667 387 q 600 325 652 365 q 507 278 538 278 q 493 282 500 278 q 491 284 491 283 q 484 326 484 296 q 493 422 484 359 q 477 458 499 458 q 465 448 465 458 q 380 355 467 437 q 263 274 293 274 q 254 289 256 274 q 222 320 251 305 q 208 336 208 327 q 208 392 208 365 q 208 445 208 419 q 215 525 208 491 q 248 602 222 559 q 254 623 252 610 q 258 644 255 637 q 347 734 266 663 q 458 819 428 804 q 475 824 466 824 q 517 819 496 819 q 566 847 540 824 q 590 871 574 854 q 626 845 600 854 q 656 833 652 836 m 521 755 q 418 711 488 770 q 349 598 349 652 q 335 542 349 577 q 326 508 326 521 q 326 481 326 499 q 326 456 326 463 q 329 427 326 437 q 342 402 332 417 q 392 426 350 392 q 458 495 433 460 q 466 506 463 503 l 467 508 q 463 508 465 508 q 508 620 462 521 q 535 720 535 678 q 521 755 535 749 m 624 416 q 806 750 806 444 q 362 1089 806 1089 q 47 577 47 978 q 411 128 3 333 q 803 289 700 50 l 830 294 l 874 283 l 874 261 l 863 228 l 841 217 l 825 194 q 321 105 651 -66 q -24 666 -24 283 q 270 1122 31 1016 q 868 828 694 1222 q 700 383 912 561 l 624 416 "},"f":{"x_min":44,"x_max":399.734375,"ha":364,"o":"m 399 1011 q 397 991 397 1001 q 392 969 397 980 q 395 946 395 953 q 386 928 395 935 q 314 842 330 885 q 273 653 288 777 q 271 620 271 628 q 295 580 271 580 q 329 583 317 583 q 345 580 340 583 q 382 575 371 577 q 389 566 392 573 q 362 522 377 535 q 295 492 347 510 q 264 477 272 485 q 246 438 254 455 q 217 267 238 420 q 188 70 196 113 q 186 52 187 60 q 186 38 186 42 q 203 -5 186 5 q 221 -10 208 -8 q 210 -21 212 -16 q 194 -69 198 -37 q 169 -121 190 -101 q 121 -142 149 -142 q 67 -120 91 -142 q 44 -64 44 -98 q 69 87 60 30 q 116 349 109 315 q 126 404 122 384 q 131 439 131 424 q 122 471 131 461 q 101 481 113 481 q 75 479 83 479 q 57 486 63 479 q 92 518 80 506 q 144 585 133 559 q 176 700 164 630 q 217 925 210 903 q 266 1021 236 990 q 331 1053 297 1053 q 399 1011 375 1053 "},";":{"x_min":33.890625,"x_max":287,"ha":320,"o":"m 227 563 q 265 546 244 572 q 287 493 287 521 l 287 416 q 284 408 287 408 q 273 408 278 408 q 241 398 258 408 q 207 389 225 389 q 167 402 183 389 q 152 439 152 415 q 189 557 152 532 q 227 563 202 563 m 34 -82 q 59 -3 37 -59 q 93 83 75 39 q 112 126 104 115 q 128 138 120 138 q 160 135 143 136 q 177 140 164 136 q 195 145 189 145 q 208 136 206 145 q 217 106 217 121 q 199 53 217 81 q 173 21 196 49 q 158 -9 160 6 q 138 -35 156 -25 q 112 -78 120 -64 q 73 -125 83 -123 q 42 -120 54 -129 q 34 -82 30 -110 "},"i":{"x_min":46,"x_max":295.609375,"ha":334,"o":"m 119 444 q 105 528 123 465 q 105 553 99 551 q 144 547 125 550 q 160 560 152 553 q 181 543 171 551 q 211 549 200 549 q 240 537 229 549 q 252 496 252 526 q 247 457 252 480 q 210 294 228 350 q 174 168 177 189 q 171 133 171 147 q 190 83 171 103 q 209 56 209 64 q 206 43 209 51 q 152 1 195 15 q 93 -7 109 -11 q 60 22 70 0 q 48 66 51 46 q 46 101 46 86 q 59 163 46 131 q 100 333 84 224 q 119 444 111 404 m 282 728 q 254 695 275 707 q 206 684 232 684 q 168 695 182 684 q 155 739 155 706 q 164 785 155 769 q 190 808 174 802 q 228 815 206 815 q 273 808 253 815 q 295 791 294 801 q 290 784 291 787 q 283 762 284 775 q 282 728 282 748 "},"6":{"x_min":59,"x_max":667,"ha":706,"o":"m 618 819 q 365 659 505 819 q 236 431 236 510 q 241 410 236 416 q 268 397 252 397 q 294 416 287 397 q 312 462 311 460 q 347 480 317 469 q 449 501 396 501 q 600 442 542 501 q 667 256 667 377 q 580 60 667 137 q 362 -17 494 -17 q 121 76 196 -17 q 59 298 59 153 q 152 593 59 450 q 354 799 231 714 q 537 877 465 877 q 595 856 562 877 q 629 824 629 835 q 618 819 629 819 m 513 158 q 515 182 515 168 q 515 204 515 196 q 515 240 515 224 q 513 268 515 256 q 474 342 486 322 q 376 398 437 398 q 311 388 346 398 q 225 354 275 378 q 213 334 217 350 q 209 296 209 318 q 221 209 209 253 q 249 163 233 165 q 257 136 255 146 q 278 89 267 107 q 374 52 298 52 q 460 75 423 52 q 513 158 502 103 "},"A":{"x_min":51.71875,"x_max":788.125,"ha":830,"o":"m 525 40 q 542 126 525 54 q 559 211 559 198 q 562 231 559 218 q 565 249 565 243 q 556 266 565 260 q 528 273 548 273 q 443 273 460 273 q 408 273 426 273 q 374 253 382 259 q 343 218 360 242 q 243 93 285 143 q 170 9 206 51 q 143 -18 156 -6 q 117 -31 130 -31 q 81 19 92 -31 q 59 113 66 81 q 51 173 55 143 q 59 163 57 168 q 112 143 69 143 q 181 159 148 143 q 251 221 221 180 q 296 285 268 245 q 304 296 300 290 q 314 304 308 297 q 430 459 383 389 q 523 637 481 541 q 574 734 554 706 q 597 754 588 754 q 612 751 607 751 q 634 766 622 751 q 660 824 637 769 q 722 871 674 857 q 747 877 734 875 q 764 880 760 880 q 788 874 777 880 q 758 717 767 777 q 728 429 728 538 q 719 410 728 421 q 710 394 711 400 q 714 362 707 380 q 721 339 721 344 q 718 326 721 335 q 695 239 705 289 q 685 155 685 190 q 702 115 685 115 q 713 117 709 115 q 754 145 728 126 q 765 154 758 148 l 765 103 q 777 100 774 103 q 751 68 785 90 q 699 40 718 46 q 665 9 680 34 q 633 -19 649 -15 q 605 -22 611 -22 q 581 -19 596 -22 q 547 1 567 -17 q 525 40 527 21 m 578 396 q 593 482 577 404 q 610 591 610 561 q 599 630 610 610 q 574 623 592 641 q 523 538 537 586 q 516 502 519 520 q 487 462 496 476 q 454 404 457 419 q 441 360 447 382 q 474 342 441 342 q 493 339 481 340 q 510 337 506 337 q 539 344 526 337 q 571 369 563 355 q 578 396 580 382 "},"n":{"x_min":41,"x_max":543.15625,"ha":584,"o":"m 66 -19 q 49 -19 55 -25 q 41 0 41 -13 q 46 23 41 12 q 96 184 79 105 q 113 344 113 263 q 110 388 113 370 q 102 448 103 434 q 91 461 93 456 q 85 483 81 474 q 96 486 87 486 q 108 491 106 487 q 170 545 128 523 q 213 555 192 549 l 218 520 q 220 508 218 508 q 230 481 230 509 q 230 469 230 473 l 228 452 l 225 436 q 225 417 225 423 q 231 394 225 402 q 358 484 294 438 q 476 551 430 538 q 526 517 505 559 q 542 445 547 476 q 517 333 531 379 q 488 227 491 247 q 479 187 484 206 q 475 166 475 167 q 479 147 475 163 q 491 126 484 130 q 504 112 501 122 q 508 91 508 102 q 495 69 508 77 q 468 51 483 61 q 453 27 453 41 q 451 8 453 12 q 424 -7 444 -7 q 389 -7 403 -7 q 364 -8 381 -7 q 356 -4 359 -9 q 354 15 354 2 q 386 209 354 29 q 403 341 403 299 q 389 405 403 387 q 379 411 385 411 q 357 401 370 411 q 339 388 344 392 q 235 261 290 352 q 184 127 180 169 q 187 86 188 97 q 187 80 187 83 q 194 62 189 72 q 199 49 199 52 q 184 28 199 37 q 129 7 170 19 q 84 -8 88 -4 q 66 -19 81 -12 "},"O":{"x_min":48,"x_max":797,"ha":838,"o":"m 83 435 q 182 655 116 561 q 362 829 248 750 q 478 891 407 860 q 538 918 508 904 q 562 935 555 926 q 576 947 569 944 q 648 916 623 928 q 732 871 724 883 l 761 825 q 772 787 772 822 q 777 719 772 753 q 797 572 787 646 q 778 364 797 465 q 732 236 759 263 q 724 238 729 232 q 713 245 717 245 q 698 229 705 245 q 529 27 633 95 q 340 -31 441 -31 q 235 -10 283 -31 q 165 43 188 10 q 107 153 124 100 q 97 231 97 189 q 97 254 97 243 q 98 276 97 265 q 88 307 98 297 q 48 374 48 349 q 64 406 48 388 q 83 435 80 424 m 623 682 q 606 780 613 751 q 528 842 592 830 q 338 680 433 858 q 244 320 244 501 q 274 163 244 227 q 372 75 305 99 q 391 73 377 73 q 555 234 468 73 q 643 557 643 396 q 623 682 643 628 "},"3":{"x_min":44,"x_max":565,"ha":606,"o":"m 510 747 q 506 738 508 743 q 416 590 493 709 q 395 526 395 554 q 423 467 395 492 q 509 384 493 403 q 549 274 549 334 q 540 206 549 226 q 486 149 528 176 q 396 86 415 105 q 342 29 369 56 q 256 -8 304 4 q 161 -22 208 -22 q 76 -7 108 -22 q 44 37 44 7 q 48 59 44 50 q 64 74 52 68 q 80 86 76 80 q 85 98 85 92 q 81 114 85 104 q 78 126 78 124 q 102 153 78 141 q 115 158 110 158 q 141 140 120 158 q 203 122 163 122 q 354 151 307 122 q 402 230 402 181 q 351 342 402 284 q 250 413 301 401 q 229 447 237 416 q 207 487 222 477 q 271 548 250 524 q 337 665 337 620 q 326 696 337 684 q 293 713 315 708 q 239 718 272 718 q 181 718 219 718 q 133 718 143 718 q 120 718 126 718 q 115 720 114 716 q 120 747 120 737 q 103 769 120 768 q 93 775 98 772 q 96 798 90 786 q 111 808 102 811 q 137 803 126 803 q 170 830 160 803 q 173 857 173 839 q 244 851 205 853 q 316 849 282 849 q 387 849 343 849 q 457 849 430 849 q 478 849 468 849 q 500 851 489 849 q 520 850 510 851 q 539 843 529 849 q 565 814 565 829 q 540 776 565 800 q 510 747 516 752 "},"]":{"x_min":37.890625,"x_max":343,"ha":436,"o":"m 343 11 l 343 1299 l 48 1299 l 48 1177 l 223 1177 l 223 122 l 37 122 l 37 11 l 343 11 "},"m":{"x_min":50,"x_max":899,"ha":943,"o":"m 337 408 q 474 538 407 493 q 553 570 531 575 q 595 528 595 557 q 592 508 595 515 q 579 499 585 503 q 584 470 583 485 q 586 439 586 454 q 585 410 586 421 q 582 399 585 406 q 579 382 580 397 q 578 364 578 367 q 579 342 578 345 q 587 342 582 336 q 730 497 662 438 q 858 563 803 563 l 899 563 q 896 517 899 538 q 891 480 893 497 q 871 420 889 463 q 858 364 853 378 q 862 360 860 361 q 871 354 871 357 q 858 334 869 349 q 837 284 837 303 q 839 259 837 274 q 842 232 842 243 q 833 205 842 220 q 820 168 825 191 q 808 95 808 114 q 825 62 808 74 q 852 38 842 49 q 852 33 852 35 q 828 33 839 33 q 775 23 801 33 q 718 -14 749 14 q 693 -27 706 -27 q 675 -11 681 -27 q 669 19 669 3 q 706 182 669 44 q 743 363 743 321 q 732 390 743 389 q 607 268 701 396 q 497 73 512 139 q 445 3 489 33 q 380 -21 409 -21 q 370 -19 373 -21 q 368 -12 366 -16 q 375 37 372 17 q 404 175 392 148 q 415 183 406 178 q 424 195 424 188 q 441 304 424 199 q 450 372 450 353 q 440 393 450 395 q 252 220 334 361 q 170 31 224 170 q 153 31 167 24 q 136 34 140 38 q 97 6 118 16 q 60 -9 75 -3 q 52 -9 55 -12 q 50 2 50 -5 q 78 117 50 28 q 116 236 115 231 q 125 291 125 271 q 125 329 125 310 q 143 406 133 367 q 146 440 143 420 q 150 463 150 461 q 140 489 150 478 q 104 508 130 500 q 114 532 108 520 q 213 577 164 577 q 233 572 222 577 q 255 552 240 561 q 266 552 256 552 q 279 540 274 550 q 284 525 284 533 q 277 492 284 514 q 252 406 255 420 q 250 381 250 392 q 264 359 250 359 q 299 374 278 359 q 337 408 320 389 "},"9":{"x_min":54,"x_max":660,"ha":698,"o":"m 437 448 q 417 423 425 431 q 373 384 392 397 q 260 350 323 350 q 101 423 159 350 q 64 488 74 455 q 54 570 54 522 q 138 773 54 684 q 337 863 222 863 q 566 774 473 863 q 660 542 660 686 q 571 262 660 394 q 358 58 493 147 q 336 53 351 53 q 316 56 327 53 q 308 58 313 56 q 298 53 302 55 q 280 12 290 15 q 265 10 271 10 q 233 10 249 10 q 205 -7 222 7 q 176 -22 188 -22 q 115 7 146 -22 q 106 25 111 15 q 379 221 259 82 q 510 532 510 373 q 510 580 510 565 q 503 648 510 622 q 471 701 496 675 q 406 765 429 747 q 330 796 366 796 q 271 773 300 796 q 216 698 242 750 q 206 656 206 677 q 211 616 206 645 q 216 563 216 587 q 226 558 216 561 q 235 554 235 556 q 260 490 235 513 q 317 455 275 476 q 354 447 334 447 q 418 470 400 447 q 429 463 424 466 q 437 448 432 459 "},"l":{"x_min":45,"x_max":314,"ha":296,"o":"m 314 929 q 304 812 314 856 q 269 695 286 754 q 209 375 232 504 q 179 154 179 204 q 188 104 179 121 q 234 80 198 87 q 228 47 230 64 q 153 -19 192 -19 q 134 -11 144 -19 l 78 -11 q 58 20 66 1 q 47 64 50 39 q 45 94 45 88 q 45 105 45 100 q 47 115 46 109 q 63 194 58 179 q 73 210 68 210 q 81 225 78 210 q 114 404 93 303 q 163 727 148 575 q 174 841 168 784 q 160 923 174 880 q 146 946 157 930 q 138 974 135 962 q 153 988 140 988 q 176 986 168 986 q 194 989 187 986 q 213 1003 204 993 q 224 1001 219 1011 q 232 983 228 992 q 261 996 240 979 q 290 1014 282 1014 q 307 995 301 1014 q 314 929 314 976 "},"8":{"x_min":50,"x_max":612,"ha":664,"o":"m 605 739 q 612 687 612 716 q 534 532 612 607 q 456 474 508 509 q 482 427 449 459 q 574 316 569 345 q 582 277 580 287 q 584 256 584 267 q 579 230 584 242 q 568 218 577 226 q 560 205 560 210 q 521 116 560 132 q 472 89 483 99 q 433 32 447 45 q 288 -3 413 13 q 261 -6 276 -6 q 240 -6 247 -6 q 109 35 156 -6 q 51 153 63 77 q 50 178 50 162 q 60 237 50 207 q 108 323 71 267 q 170 366 122 342 q 228 423 218 391 q 188 460 229 425 q 143 595 143 500 q 227 804 143 735 q 405 863 297 863 q 550 825 493 863 q 573 815 561 819 q 594 782 590 804 q 605 739 599 761 m 466 672 q 464 701 466 692 q 457 723 463 711 q 449 747 452 736 q 434 765 445 758 q 415 765 430 768 q 396 768 401 762 q 357 789 376 789 q 305 753 330 789 q 276 693 281 718 q 272 662 272 668 q 277 633 272 650 q 288 601 282 617 q 308 539 305 546 q 353 502 323 510 q 382 499 367 500 q 396 487 392 489 q 403 487 399 487 q 425 521 414 509 q 451 553 448 546 q 462 595 459 574 q 466 640 466 617 q 466 672 466 660 m 428 303 q 376 346 415 321 q 310 375 337 370 q 278 380 284 380 q 234 363 251 380 q 206 316 217 346 q 203 315 205 315 q 199 294 202 313 q 197 262 197 276 q 197 242 197 249 q 230 142 197 173 q 322 112 263 112 q 415 146 376 112 q 454 232 454 180 q 428 303 454 269 "},"p":{"x_min":33.875,"x_max":540.078125,"ha":578,"o":"m 415 548 q 482 480 423 537 q 540 426 502 462 q 536 378 536 410 q 536 331 536 348 q 529 244 536 281 q 502 173 522 206 q 457 118 482 140 q 420 86 432 97 q 333 5 376 45 q 226 -32 284 -32 q 195 -42 201 -32 q 185 -63 189 -52 l 138 -266 q 114 -269 119 -269 q 80 -256 92 -269 q 69 -239 74 -250 q 60 -201 60 -224 q 64 -159 60 -183 q 71 -111 68 -135 q 82 -53 74 -87 q 93 0 90 -19 q 58 22 97 22 q 38 19 49 22 q 34 23 32 17 q 43 44 35 36 q 76 55 46 47 q 109 80 105 64 q 149 265 123 126 q 172 394 157 310 q 129 402 155 394 q 97 410 103 410 q 88 440 85 410 q 126 465 88 451 q 201 492 187 486 q 211 557 208 535 q 228 631 222 622 q 243 640 235 640 q 264 637 256 637 q 306 615 281 637 q 326 591 314 608 q 328 573 332 586 q 326 557 324 561 q 343 547 330 550 q 370 544 355 544 q 405 546 394 544 q 415 548 408 546 m 415 284 q 409 319 415 302 q 398 355 404 337 q 373 412 390 396 q 334 428 356 428 q 313 425 322 428 q 302 421 307 423 q 265 289 277 336 q 229 97 229 147 q 233 76 229 80 q 256 67 242 67 q 288 75 272 67 q 326 100 305 83 q 415 284 415 166 "},"4":{"x_min":46,"x_max":714.625,"ha":753,"o":"m 683 293 l 576 293 q 545 283 555 290 q 514 197 514 259 q 527 51 514 95 q 549 20 537 20 q 539 28 552 28 q 526 25 537 28 q 495 22 509 24 q 480 1 486 20 q 463 -19 473 -17 q 441 -8 454 -20 q 418 3 428 3 q 369 -16 402 5 q 346 -24 353 -27 q 368 100 361 55 q 390 273 390 233 q 387 289 390 286 q 353 297 373 297 q 324 294 338 297 q 271 281 278 281 q 165 281 233 281 q 95 281 97 281 q 60 282 67 281 q 46 312 46 293 q 77 376 46 335 q 108 416 99 404 q 292 608 118 429 q 410 750 365 683 q 480 815 434 786 q 637 858 549 858 q 644 844 644 858 q 598 666 644 818 q 552 463 552 513 q 552 450 552 457 q 555 439 555 441 q 564 409 561 412 q 606 395 574 398 q 657 392 638 392 q 698 392 687 392 q 714 394 709 392 q 707 373 710 380 q 682 349 698 352 q 667 328 667 345 q 683 293 667 313 m 288 396 l 360 396 q 409 419 365 396 q 413 414 410 416 q 427 470 423 450 q 441 558 441 533 q 438 570 441 569 q 441 604 441 584 q 428 629 441 629 q 395 609 417 629 q 377 592 385 601 q 304 526 333 554 q 252 461 247 472 q 238 431 238 445 q 253 406 238 416 q 288 396 269 396 "},"R":{"x_min":52,"x_max":950,"ha":987,"o":"m 601 159 q 585 205 597 195 q 579 208 584 206 q 575 235 575 223 q 575 413 575 326 q 568 446 575 427 q 551 465 562 465 q 540 452 546 465 q 524 399 530 433 q 512 333 517 366 q 507 266 507 299 q 507 234 507 241 q 503 217 507 223 q 363 67 427 124 q 191 -24 261 -24 q 134 -5 159 -24 q 92 57 110 13 q 89 70 89 66 q 94 95 94 81 q 91 117 94 106 q 75 155 89 127 q 57 212 62 184 q 52 266 52 239 q 54 299 52 281 q 61 333 57 316 q 207 601 103 473 q 500 788 341 767 q 542 818 518 791 q 595 846 566 846 q 642 843 623 843 q 699 851 664 843 q 755 859 735 859 q 773 857 767 859 q 859 836 827 851 q 919 784 891 822 q 942 743 935 759 q 950 705 950 727 q 929 645 950 688 q 919 602 919 622 q 841 525 919 571 q 701 455 789 494 q 668 435 678 444 q 659 416 659 426 q 664 398 659 410 q 670 374 670 385 q 691 314 670 349 q 714 259 712 280 q 762 30 731 119 q 814 -40 788 -40 q 842 -19 829 -40 l 821 -137 q 782 -166 812 -153 q 720 -179 752 -179 q 672 -168 692 -179 q 645 -134 652 -158 q 616 -39 630 -86 q 603 23 603 7 q 607 49 605 37 q 612 73 609 62 q 607 105 611 80 q 601 159 604 131 m 758 718 q 657 779 729 779 q 563 759 616 779 q 438 694 494 734 q 311 558 367 643 q 232 399 270 497 q 185 203 185 280 q 197 140 185 164 q 239 107 210 116 q 379 258 287 95 q 522 615 472 421 q 542 639 526 630 q 573 644 558 648 q 596 626 588 638 q 597 602 604 614 q 565 536 574 558 q 554 480 543 487 q 577 474 565 474 q 588 478 584 474 q 592 482 591 479 q 597 493 596 492 q 607 498 601 496 q 619 503 615 501 q 660 523 645 514 q 695 548 675 532 q 772 665 772 609 q 758 718 772 687 "},"o":{"x_min":45,"x_max":446.5,"ha":493,"o":"m 118 377 q 186 480 152 428 q 273 544 234 544 l 398 544 q 422 489 415 512 q 446 356 446 417 q 382 142 446 239 q 224 -23 303 59 q 216 -21 219 -21 q 196 -17 204 -17 q 162 -25 177 -17 q 121 -6 155 -29 q 64 39 88 16 q 50 92 55 48 q 45 182 45 137 q 62 284 45 241 q 118 377 76 317 m 317 357 q 303 445 307 432 q 285 464 295 470 q 242 420 255 437 q 191 330 197 367 q 194 313 193 321 q 180 240 187 271 q 166 181 172 209 q 168 155 163 170 q 170 126 172 141 q 176 91 167 112 q 204 71 185 71 q 254 109 228 71 q 317 249 287 155 q 324 294 324 270 q 321 325 324 312 q 317 357 319 339 "},"5":{"x_min":52,"x_max":573.59375,"ha":616,"o":"m 295 641 q 291 613 294 634 q 289 582 289 592 q 305 548 289 549 q 445 484 384 531 q 522 345 522 424 q 485 214 522 274 q 396 131 449 154 q 362 103 377 122 q 333 66 347 84 q 255 7 292 24 q 179 -10 217 -10 q 111 -1 145 -10 q 62 12 78 8 l 62 63 l 52 70 l 52 127 l 63 127 l 66 149 q 206 116 134 116 q 317 150 276 116 q 365 274 365 191 q 346 364 365 340 q 302 393 344 366 q 193 446 214 436 q 164 509 164 461 q 199 731 164 656 q 279 794 230 798 q 316 825 290 794 q 344 849 331 844 q 373 854 358 854 q 404 851 381 854 q 433 849 427 849 l 569 849 q 573 835 575 846 q 569 816 571 825 l 550 803 l 560 766 l 543 730 l 522 737 l 374 737 q 316 706 333 737 q 295 641 308 691 "}}}
